<svg width="25" height="18" viewBox="0 0 25 18" fill="none" xmlns="http://www.w3.org/2000/svg">
<path d="M2.05102 18C1.06739 17.9984 0.265989 17.22 0.265625 16.252V1.74826C0.265989 0.780099 1.06739 0.00154746 2.05102 0H23.0382C24.022 0.00154746 24.8232 0.780099 24.8237 1.74826V16.252C24.8232 17.22 24.022 17.9984 23.0382 18H2.05102ZM0.544622 1.74826V16.252C0.54617 17.0608 1.21649 17.7207 2.05102 17.7209H23.0382C23.8726 17.7207 24.5432 17.0608 24.5447 16.252V1.74826C24.5432 0.939214 23.8726 0.279088 23.0382 0.279088H2.05102C1.21649 0.279088 0.54617 0.939214 0.544622 1.74826Z" fill="white"/>
<path d="M24.6523 16.207C24.6523 17.0953 23.9121 17.8153 22.9991 17.8153H1.91867C1.00567 17.8153 0.265625 17.0953 0.265625 16.207V1.70521C0.265625 0.816702 1.00567 0.0966797 1.91867 0.0966797H22.9991C23.9121 0.0966797 24.6523 0.816702 24.6523 1.70521V16.207Z" fill="white"/>
<path d="M1.96217 17.9975C0.974168 17.9959 0.169218 17.2176 0.168945 16.2498V1.74808C0.169218 0.780009 0.974168 0.00163848 1.96217 0H23.0424C24.0304 0.00163848 24.8353 0.780009 24.8358 1.74808V16.2498C24.8353 17.2176 24.0304 17.9959 23.0424 17.9975H1.96217ZM0.449125 1.74808V16.2498C0.450673 17.0584 1.12391 17.7183 1.96217 17.7185H23.0424C23.8805 17.7183 24.554 17.0584 24.5555 16.2498V1.74808C24.554 0.939124 23.8805 0.279088 23.0424 0.279088H1.96217C1.12391 0.279088 0.450673 0.939124 0.449125 1.74808Z" fill="#0069AA"/>
<path d="M2.59952 10.9054C2.59952 10.508 2.39198 10.5341 2.19336 10.5299V10.415C2.36558 10.4234 2.54217 10.4234 2.71485 10.4234C2.90036 10.4234 3.15224 10.415 3.47957 10.415C4.62387 10.415 5.24722 11.1792 5.24722 11.9618C5.24722 12.3997 4.99079 13.4998 3.42632 13.4998C3.20121 13.4998 2.99312 13.4911 2.78549 13.4911C2.58678 13.4911 2.39198 13.4952 2.19336 13.4998V13.3849C2.45825 13.3581 2.58678 13.3494 2.59952 13.0491V10.9054ZM3.03272 12.9781C3.03272 13.3184 3.27603 13.3581 3.49249 13.3581C4.44736 13.3581 4.76077 12.6379 4.76077 11.9795C4.76077 11.153 4.23054 10.5566 3.37762 10.5566C3.19602 10.5566 3.11246 10.5694 3.03272 10.5742V12.9781Z" fill="#231F20"/>
<path d="M5.47461 13.3342H5.55835C5.68206 13.3342 5.77063 13.3342 5.77063 13.1881V11.9905C5.77063 11.7963 5.70436 11.7695 5.5406 11.6814V11.6107C5.74833 11.5484 5.99592 11.465 6.01349 11.4516C6.04453 11.434 6.07065 11.4292 6.09332 11.4292C6.11489 11.4292 6.12399 11.4558 6.12399 11.4915V13.1881C6.12399 13.3342 6.22148 13.3342 6.34528 13.3342H6.42001V13.4492C6.26982 13.4492 6.11489 13.4405 5.95641 13.4405C5.7973 13.4405 5.638 13.4446 5.47461 13.4492V13.3342ZM5.9474 10.7489C5.83225 10.7489 5.73085 10.6429 5.73085 10.528C5.73085 10.4173 5.83699 10.3154 5.9474 10.3154C6.06219 10.3154 6.16405 10.4085 6.16405 10.528C6.16405 10.6474 6.06665 10.7489 5.9474 10.7489Z" fill="#231F20"/>
<path d="M6.82397 12.0634C6.82397 11.9001 6.77499 11.8561 6.56773 11.772V11.688C6.75743 11.6262 6.93839 11.5685 7.15085 11.4756C7.16423 11.4756 7.17697 11.4844 7.17697 11.5197V11.8071C7.42939 11.6262 7.64603 11.4756 7.9426 11.4756C8.31772 11.4756 8.45016 11.7497 8.45016 12.0944V13.2344C8.45016 13.3806 8.54765 13.3806 8.67136 13.3806H8.751V13.4956C8.59571 13.4956 8.44133 13.4868 8.2824 13.4868C8.12319 13.4868 7.96399 13.4909 7.80487 13.4956V13.3806H7.88461C8.00841 13.3806 8.09643 13.3806 8.09643 13.2344V12.0903C8.09643 11.8381 7.9426 11.7144 7.69027 11.7144C7.54872 11.7144 7.32334 11.8291 7.17697 11.9267V13.2344C7.17697 13.3806 7.27482 13.3806 7.39853 13.3806H7.4779V13.4956C7.32334 13.4956 7.16869 13.4868 7.00921 13.4868C6.85046 13.4868 6.69116 13.4909 6.53223 13.4956V13.3806H6.61197C6.73558 13.3806 6.82397 13.3806 6.82397 13.2344V12.0634Z" fill="#231F20"/>
<path d="M9.10382 12.2759C9.09472 12.3157 9.09472 12.3818 9.10382 12.5322C9.12976 12.9519 9.39993 13.2965 9.75312 13.2965C9.99652 13.2965 10.1867 13.1639 10.3499 13.0006L10.4116 13.0625C10.2082 13.3321 9.95647 13.562 9.59436 13.562C8.89155 13.562 8.75 12.881 8.75 12.5984C8.75 11.7321 9.3333 11.4756 9.64234 11.4756C10.0007 11.4756 10.3855 11.701 10.3896 12.1695C10.3896 12.1964 10.3896 12.2226 10.3855 12.2492L10.3455 12.2759H9.10382ZM9.88629 12.1343C9.99652 12.1343 10.0094 12.0768 10.0094 12.0236C10.0094 11.7985 9.87254 11.6173 9.62495 11.6173C9.3556 11.6173 9.16991 11.8158 9.11684 12.1343H9.88629Z" fill="#231F20"/>
<path d="M10.4844 13.3806H10.6038C10.7271 13.3806 10.8155 13.3806 10.8155 13.2344V11.9928C10.8155 11.8561 10.6521 11.8291 10.5857 11.7937V11.7277C10.9084 11.5906 11.0852 11.4756 11.1257 11.4756C11.1514 11.4756 11.1648 11.4889 11.1648 11.5333V11.9311H11.174C11.2842 11.7588 11.4702 11.4756 11.7395 11.4756C11.85 11.4756 11.9913 11.5506 11.9913 11.7098C11.9913 11.8291 11.9078 11.9357 11.7841 11.9357C11.6466 11.9357 11.6466 11.8291 11.4918 11.8291C11.4167 11.8291 11.1692 11.9311 11.1692 12.1964V13.2344C11.1692 13.3806 11.2576 13.3806 11.3814 13.3806H11.6286V13.4956C11.3855 13.4909 11.2005 13.4868 11.0103 13.4868C10.8291 13.4868 10.6433 13.4909 10.4844 13.4956V13.3806Z" fill="#231F20"/>
<path d="M12.108 12.8809C12.1656 13.1727 12.3421 13.4204 12.6652 13.4204C12.9256 13.4204 13.0227 13.2611 13.0227 13.1067C13.0227 12.5848 12.0595 12.7529 12.0595 12.0415C12.0595 11.7936 12.2585 11.4756 12.7447 11.4756C12.8859 11.4756 13.0759 11.5156 13.2481 11.604L13.2791 12.0545H13.1775C13.1334 11.7762 12.9789 11.6172 12.6957 11.6172C12.519 11.6172 12.3512 11.7187 12.3512 11.9088C12.3512 12.4262 13.3762 12.2668 13.3762 12.9608C13.3762 13.2522 13.1423 13.5619 12.6162 13.5619C12.4395 13.5619 12.2315 13.4999 12.0773 13.4115L12.0283 12.9032L12.108 12.8809Z" fill="#231F20"/>
<path d="M17.3946 11.1817H17.2843C17.2002 10.6651 16.8334 10.4572 16.3387 10.4572C15.8299 10.4572 15.0921 10.7972 15.0921 11.8579C15.0921 12.7509 15.7288 13.3918 16.4092 13.3918C16.8463 13.3918 17.2095 13.0912 17.2977 12.6269L17.3993 12.6533L17.2977 13.2987C17.1121 13.4138 16.6126 13.5333 16.3205 13.5333C15.2868 13.5333 14.6328 12.8659 14.6328 11.8714C14.6328 10.9653 15.4416 10.3154 16.3078 10.3154C16.6656 10.3154 17.0102 10.4307 17.3506 10.5501L17.3946 11.1817Z" fill="#231F20"/>
<path d="M17.5273 13.3869H17.611C17.7352 13.3869 17.8233 13.3869 17.8233 13.2407V10.7796C17.8233 10.4921 17.7572 10.4834 17.5891 10.4346V10.3639C17.7657 10.3065 17.9515 10.2271 18.0445 10.1737C18.0925 10.1476 18.1282 10.125 18.1412 10.125C18.1683 10.125 18.177 10.1519 18.177 10.1874V13.2407C18.177 13.3869 18.2743 13.3869 18.3979 13.3869H18.4727V13.5018C18.3229 13.5018 18.1683 13.4931 18.0091 13.4931C17.8499 13.4931 17.691 13.4972 17.5273 13.5018V13.3869Z" fill="#231F20"/>
<path d="M20.3799 13.1856C20.3799 13.2654 20.4282 13.2696 20.5032 13.2696C20.5565 13.2696 20.6225 13.2654 20.6803 13.2654V13.3585C20.4902 13.376 20.1277 13.4688 20.0436 13.4954L20.0215 13.4819V13.1239C19.7566 13.3404 19.5531 13.4954 19.2389 13.4954C19.0003 13.4954 18.753 13.3404 18.753 12.9696V11.8379C18.753 11.7228 18.7354 11.6123 18.4883 11.5905V11.5064C18.6475 11.502 19.0003 11.4756 19.0579 11.4756C19.107 11.4756 19.107 11.5064 19.107 11.6038V12.7438C19.107 12.8766 19.107 13.2563 19.4914 13.2563C19.6414 13.2563 19.8403 13.1416 20.0258 12.9873V11.798C20.0258 11.7097 19.8138 11.6611 19.655 11.617V11.5376C20.0523 11.5106 20.3001 11.4756 20.3442 11.4756C20.3799 11.4756 20.3799 11.5064 20.3799 11.5551V13.1856Z" fill="#231F20"/>
<path d="M21.2968 11.8C21.4735 11.6502 21.7123 11.4818 21.9553 11.4818C22.4681 11.4818 22.7775 11.9286 22.7775 12.4102C22.7775 12.9891 22.353 13.5683 21.7207 13.5683C21.3941 13.5683 21.2216 13.4619 21.1065 13.4133L20.9743 13.5149L20.8817 13.4665C20.9212 13.2058 20.9435 12.9495 20.9435 12.6797V10.7796C20.9435 10.4921 20.8769 10.4834 20.709 10.4346V10.3639C20.8859 10.3065 21.0714 10.2271 21.1641 10.1737C21.2129 10.1476 21.2481 10.125 21.2616 10.125C21.2879 10.125 21.2968 10.1519 21.2968 10.1874V11.8ZM21.2968 13.0022C21.2968 13.1701 21.456 13.4531 21.7521 13.4531C22.2249 13.4531 22.4237 12.9891 22.4237 12.5956C22.4237 12.1183 22.0616 11.7207 21.717 11.7207C21.5528 11.7207 21.4161 11.8268 21.2968 11.9286V13.0022Z" fill="#231F20"/>
<path d="M2.19336 16.0702H2.22722C2.31361 16.0702 2.40509 16.0584 2.40509 15.9331V14.6733C2.40509 14.548 2.31361 14.5361 2.22722 14.5361H2.19336V14.4639C2.28712 14.4639 2.43149 14.4734 2.54964 14.4734C2.66979 14.4734 2.8138 14.4639 2.92685 14.4639V14.5361H2.8929C2.80688 14.5361 2.71531 14.548 2.71531 14.6733V15.9331C2.71531 16.0584 2.80688 16.0702 2.8929 16.0702H2.92685V16.1425C2.81152 16.1425 2.66697 16.1332 2.54709 16.1332C2.42903 16.1332 2.28712 16.1425 2.19336 16.1425V16.0702Z" fill="#231F20"/>
<path d="M2.93732 16.0666C2.82108 16.0666 2.67708 16.057 2.55738 16.057C2.43968 16.057 2.29831 16.0666 2.20383 16.0666H2.19336V15.9737H2.23751C2.3248 15.9715 2.40409 15.9645 2.40481 15.847V14.5872C2.40409 14.4695 2.3248 14.4619 2.23751 14.4604H2.19336V14.3672H2.20383C2.29831 14.3672 2.4425 14.3767 2.56011 14.3767C2.67972 14.3767 2.82372 14.3672 2.93732 14.3672H2.94806V14.4604H2.90391C2.81644 14.4619 2.73661 14.4695 2.73615 14.5872V15.847C2.73661 15.9645 2.81644 15.9715 2.90391 15.9737H2.94806V16.0666H2.93732ZM2.92703 16.0461V15.9948H2.90391C2.81789 15.9948 2.71567 15.9798 2.71513 15.847V14.5872C2.71567 14.4543 2.81789 14.4394 2.90391 14.4394H2.92703V14.3881C2.81607 14.3882 2.67671 14.3978 2.56011 14.3978C2.44578 14.3978 2.30751 14.3889 2.21439 14.3881V14.4394H2.23751C2.32325 14.4394 2.42566 14.4543 2.42566 14.5872V15.847C2.42566 15.9798 2.32325 15.9948 2.23751 15.9948H2.21439V16.0461C2.30751 16.0453 2.44332 16.0363 2.55738 16.0363C2.67453 16.0363 2.81362 16.0454 2.92703 16.0461Z" fill="#231F20"/>
<path d="M4.62449 15.6685L4.62932 15.6637V14.7623C4.62932 14.5649 4.49205 14.5361 4.41987 14.5361H4.36689V14.4639C4.48013 14.4639 4.59072 14.4734 4.7036 14.4734C4.80209 14.4734 4.90131 14.4639 4.99943 14.4639V14.5361H4.96366C4.86235 14.5361 4.74929 14.5553 4.74929 14.8414V15.9356C4.74929 16.0198 4.75166 16.104 4.76349 16.1786H4.6721L3.43386 14.798V15.789C3.43386 15.9984 3.47455 16.0702 3.6597 16.0702H3.70066V16.1425C3.59726 16.1425 3.49394 16.1331 3.39054 16.1331C3.28258 16.1331 3.17171 16.1425 3.06348 16.1425V16.0702H3.09716C3.26319 16.0702 3.31362 15.9572 3.31362 15.7654V14.7521C3.31362 14.6176 3.20266 14.5361 3.09488 14.5361H3.06348V14.4639C3.15469 14.4639 3.24863 14.4734 3.33983 14.4734C3.4122 14.4734 3.48193 14.4639 3.55402 14.4639L4.62449 15.6685Z" fill="#231F20"/>
<path d="M4.77414 16.1026L4.67511 16.0992L3.45471 14.7389V15.7029C3.45762 15.912 3.48939 15.9714 3.67044 15.9737H3.72196V16.0666H3.71131C3.60727 16.0666 3.50368 16.057 3.40109 16.057C3.2935 16.057 3.1829 16.0666 3.07394 16.0666H3.06348V15.9737H3.1079C3.26683 15.9728 3.31225 15.8707 3.31398 15.6792V14.6664C3.31344 14.5382 3.20848 14.4604 3.10562 14.4604H3.06348V14.3672H3.07394C3.16588 14.3672 3.26009 14.3767 3.3503 14.3767C3.42203 14.3767 3.49139 14.3672 3.57259 14.3709L4.62941 15.5606V14.6761C4.62823 14.4851 4.50052 14.4619 4.43061 14.4604H4.36707V14.3672H4.37763C4.49123 14.3672 4.60192 14.3767 4.71425 14.3767C4.81201 14.3767 4.91068 14.3672 5.01008 14.3672H5.02055V14.4604H4.97431C4.875 14.4629 4.77314 14.4717 4.77023 14.7553V15.8495C4.77023 15.9336 4.77296 16.0175 4.78452 16.0906L4.78661 16.1026H4.77414ZM4.68275 16.0816H4.7624C4.75157 16.0093 4.74975 15.9295 4.74975 15.8495V14.7553C4.74975 14.4667 4.87072 14.4394 4.97431 14.4392H4.99962V14.3881C4.90486 14.3889 4.80992 14.3975 4.71425 14.3975C4.60411 14.3975 4.49697 14.3889 4.38837 14.3881L4.3881 14.4392H4.43061C4.50443 14.4394 4.65026 14.4723 4.65026 14.6761L4.64707 15.5851L4.64234 15.5899L4.63405 15.5976L3.56467 14.3881C3.49321 14.3881 3.42367 14.3975 3.3503 14.3975C3.26219 14.3975 3.1718 14.3889 3.08459 14.3881L3.08414 14.4392H3.10562C3.21831 14.4394 3.33446 14.5256 3.33446 14.6664V15.6792C3.33446 15.8716 3.28085 15.9944 3.1079 15.9951L3.08459 15.9944V16.0461C3.18882 16.0453 3.29614 16.0363 3.40109 16.0363C3.5015 16.0363 3.60163 16.0453 3.70085 16.0461V15.9951H3.67044C3.48111 15.9944 3.43441 15.912 3.43423 15.7029V14.685L4.68275 16.0816ZM4.63514 15.5824L4.6427 15.5755L4.63514 15.5824ZM4.62941 15.5776V15.5768L4.6275 15.5752L4.62941 15.5776Z" fill="#231F20"/>
<path d="M5.38373 14.5621C5.20313 14.5621 5.19621 14.6056 5.16007 14.7808H5.08789C5.09736 14.7135 5.10928 14.6463 5.11675 14.5765C5.12649 14.5089 5.13122 14.4418 5.13122 14.3723H5.18884C5.20823 14.4445 5.26831 14.4418 5.33357 14.4418H6.57381C6.63908 14.4418 6.69916 14.4394 6.70416 14.3672L6.76151 14.3771C6.75213 14.4418 6.74239 14.5068 6.73538 14.5718C6.73065 14.6367 6.73065 14.7015 6.73065 14.7664L6.65828 14.7932C6.65346 14.7043 6.64154 14.5621 6.48051 14.5621H6.086V15.8415C6.086 16.027 6.17029 16.0482 6.28544 16.0482H6.33132V16.1205C6.23765 16.1205 6.06907 16.1112 5.93954 16.1112C5.79508 16.1112 5.62659 16.1205 5.53274 16.1205V16.0482H5.57862C5.71115 16.0482 5.77806 16.0363 5.77806 15.8464V14.5621H5.38373Z" fill="#231F20"/>
<path d="M6.244 16.1428C6.14924 16.1428 5.98111 16.1333 5.85203 16.1333C5.70776 16.1333 5.53963 16.1428 5.44524 16.1428H5.43495V16.0499H5.49111C5.62365 16.0468 5.6769 16.0451 5.6799 15.8585V14.5845H5.29623V14.5634H5.70066V15.8585C5.70066 16.0515 5.62301 16.071 5.49111 16.0713H5.45552V16.1221C5.55028 16.1215 5.7124 16.1125 5.85203 16.1125C5.97729 16.1125 6.13786 16.1215 6.23316 16.1221V16.0713H6.19794C6.08169 16.071 5.98812 16.0425 5.98812 15.8536V14.5634H6.39301C6.55422 14.5641 6.57561 14.7012 6.58061 14.7906L6.63268 14.7714C6.63268 14.7086 6.63295 14.6457 6.63723 14.5826C6.64433 14.5204 6.65307 14.4593 6.66217 14.3977L6.62558 14.3916C6.61438 14.4616 6.54657 14.4653 6.48631 14.4644H5.23351C5.17698 14.4645 5.11526 14.4618 5.0936 14.3946H5.05391C5.05355 14.4611 5.04891 14.5257 5.03989 14.5897C5.0327 14.6557 5.02169 14.7193 5.01295 14.783H5.0642C5.09587 14.6152 5.11645 14.561 5.29623 14.5634V14.5845C5.11809 14.5879 5.122 14.6177 5.08268 14.7955L5.08104 14.8036H4.98828L4.98974 14.7912C4.99948 14.724 5.01158 14.6566 5.01868 14.5867C5.0287 14.52 5.03325 14.4533 5.03325 14.3844V14.3737H5.10953L5.11144 14.3813C5.12764 14.4419 5.17216 14.4424 5.23351 14.4434H6.48631C6.5533 14.4424 6.6021 14.4415 6.60619 14.3786L6.60701 14.3672L6.61793 14.3694L6.68593 14.3801L6.6842 14.3907C6.67464 14.4552 6.66518 14.52 6.65808 14.5845C6.65343 14.6488 6.65343 14.7135 6.65343 14.7785V14.7858L6.64652 14.7886L6.56141 14.8198L6.56086 14.8058C6.55421 14.7154 6.54493 14.5845 6.39301 14.5845H6.00896V15.8536C6.01142 16.0349 6.08342 16.0475 6.19794 16.0499H6.25428V16.1428H6.244Z" fill="#231F20"/>
<path d="M6.82227 16.0702H6.85613C6.94251 16.0702 7.03408 16.0584 7.03408 15.9331V14.6733C7.03408 14.548 6.94251 14.5361 6.85613 14.5361H6.82227V14.4639C6.96845 14.4639 7.21914 14.4734 7.42077 14.4734C7.62312 14.4734 7.8729 14.4639 8.03638 14.4639C8.03228 14.5672 8.03447 14.7263 8.04157 14.832L7.96902 14.8511C7.95746 14.6947 7.9287 14.57 7.67601 14.57H7.34212V15.1996H7.62785C7.77204 15.1996 7.80353 15.1182 7.81773 14.9881H7.88992C7.88509 15.0821 7.88264 15.1759 7.88264 15.2695C7.88264 15.3611 7.88509 15.4524 7.88992 15.5436L7.81773 15.558C7.80353 15.4139 7.79634 15.3202 7.63031 15.3202H7.34212V15.8802C7.34212 16.0367 7.48121 16.0367 7.63513 16.0367C7.92369 16.0367 8.05113 16.0173 8.12331 15.7435L8.1904 15.7601C8.15908 15.8878 8.1305 16.0149 8.10893 16.1425C7.95482 16.1425 7.67837 16.1332 7.46237 16.1332C7.24545 16.1332 6.95944 16.1425 6.82227 16.1425V16.0702Z" fill="#231F20"/>
<path d="M8.11894 16.0666C7.96465 16.0666 7.68793 16.0566 7.4722 16.0566C7.25555 16.0566 6.96973 16.0666 6.83237 16.0666H6.82227V15.9737H6.86632C6.95325 15.9723 7.03254 15.9645 7.03363 15.847V14.5872C7.03254 14.4697 6.95325 14.4619 6.86632 14.4604H6.82227V14.3672H6.83237C6.97938 14.3672 7.22952 14.3767 7.43096 14.3767C7.63313 14.3767 7.88291 14.3672 8.04658 14.3672H8.05732L8.05695 14.3784C8.05531 14.4143 8.05431 14.4571 8.05431 14.5024C8.05431 14.5855 8.05695 14.6766 8.06159 14.745L8.06205 14.7536L8.05386 14.7561L7.96948 14.7782L7.96911 14.7657C7.95491 14.6098 7.93388 14.4962 7.6862 14.4939H7.36215L7.36196 15.1029H7.63796C7.77659 15.1015 7.80135 15.0307 7.81783 14.901L7.81837 14.8913H7.91076L7.91058 14.9022C7.90594 14.9963 7.90312 15.0898 7.90312 15.1834C7.90312 15.2744 7.90594 15.3657 7.91058 15.4571L7.91076 15.4658L7.90212 15.4677L7.81837 15.4844L7.81783 15.4732C7.80108 15.3263 7.79998 15.2459 7.64041 15.2441H7.36215V15.794C7.36251 15.9402 7.48858 15.9394 7.64524 15.9402C7.93479 15.9385 8.05076 15.9243 8.12322 15.6546L8.12577 15.6448L8.13587 15.6465L8.21288 15.6665L8.2107 15.6763C8.17947 15.8037 8.1508 15.9308 8.12914 16.0581L8.12723 16.0666H8.11894ZM8.11011 16.0459C8.13105 15.9243 8.15845 15.8029 8.18794 15.6818L8.1407 15.6699C8.06869 15.9389 7.92906 15.9629 7.64524 15.9611C7.49368 15.9611 7.34221 15.9611 7.34139 15.794V15.2236H7.64041C7.80836 15.2218 7.82529 15.323 7.8374 15.4598L7.88928 15.4492C7.88455 15.3606 7.88218 15.2715 7.88218 15.1834C7.88218 15.0931 7.88455 15.003 7.88928 14.9123H7.8374C7.82374 15.0379 7.7846 15.1255 7.63796 15.124H7.34139V14.4731H7.6862C7.93634 14.471 7.97785 14.6005 7.98868 14.7518L8.04048 14.7377C8.03629 14.6699 8.03347 14.5826 8.03347 14.5024C8.03347 14.4612 8.03456 14.4222 8.03592 14.3881C7.87253 14.3889 7.62867 14.3975 7.43096 14.3975C7.23343 14.3975 6.99012 14.3889 6.84302 14.3881V14.4392H6.86632C6.9518 14.4394 7.05411 14.4543 7.05475 14.5872V15.847C7.05411 15.9798 6.9518 15.9944 6.86632 15.9951H6.84302V16.0459C6.98293 16.0454 7.26101 16.0363 7.4722 16.0363C7.68447 16.0363 7.95509 16.0454 8.11011 16.0459Z" fill="#231F20"/>
<path d="M8.4839 14.7186C8.4839 14.5432 8.38759 14.5361 8.31295 14.5361H8.26953V14.4639C8.34645 14.4639 8.49564 14.4734 8.64247 14.4734C8.78647 14.4734 8.90208 14.4639 9.02951 14.4639C9.33218 14.4639 9.60198 14.5455 9.60198 14.8872C9.60198 15.1035 9.45761 15.2356 9.26782 15.3105L9.67872 15.9258C9.74617 16.0275 9.79396 16.0561 9.91211 16.0702V16.1425C9.83264 16.1425 9.75563 16.1332 9.67653 16.1332C9.60198 16.1332 9.5247 16.1425 9.45051 16.1425C9.26518 15.8997 9.10634 15.6401 8.95014 15.3631H8.79166V15.8781C8.79166 16.0632 8.87804 16.0702 8.98828 16.0702H9.03188V16.1425C8.89452 16.1425 8.75561 16.1332 8.61825 16.1332C8.50283 16.1332 8.38978 16.1425 8.26953 16.1425V16.0702H8.31295C8.40234 16.0702 8.4839 16.0295 8.4839 15.9406V14.7186ZM8.79166 15.2763H8.90918C9.14994 15.2763 9.27947 15.1852 9.27947 14.9013C9.27947 14.6875 9.14248 14.5504 8.9282 14.5504C8.85602 14.5504 8.82525 14.5578 8.79166 14.5601V15.2763Z" fill="#231F20"/>
<path d="M9.92267 16.0666C9.84202 16.0666 9.76556 16.057 9.68645 16.057C9.61318 16.057 9.53626 16.0666 9.45261 16.0626C9.268 15.8204 9.10989 15.5623 8.9546 15.2878H8.81251V15.7915C8.81524 15.9725 8.88769 15.9712 8.99884 15.9737H9.05282V16.0666H9.04217C8.90472 16.0666 8.76499 16.057 8.62872 16.057C8.51385 16.057 8.40088 16.0666 8.28009 16.0666H8.26953V15.9737H8.32351C8.40999 15.9731 8.48308 15.9354 8.48344 15.8545V14.6324C8.48171 14.4619 8.39815 14.4628 8.32351 14.4604H8.26953V14.3672H8.28009C8.35792 14.3672 8.50638 14.3767 8.65303 14.3767C8.79658 14.3767 8.91191 14.3672 9.04007 14.3672C9.34319 14.3679 9.62228 14.4514 9.6231 14.8007C9.6231 15.0178 9.47955 15.1534 9.29413 15.229L9.69792 15.834C9.76519 15.9337 9.80706 15.9587 9.92403 15.9737L9.93277 15.9751V16.0666H9.92267ZM8.79148 15.2665H8.96652L8.96944 15.272C9.126 15.5483 9.28402 15.808 9.46107 16.0461C9.53426 16.0461 9.61154 16.0363 9.68645 16.0363C9.76319 16.0363 9.83747 16.0448 9.91211 16.0459V15.9931C9.79942 15.9793 9.74644 15.9452 9.68081 15.8456L9.26218 15.2197L9.2741 15.2148C9.46235 15.1406 9.60189 15.0121 9.60198 14.8007C9.60189 14.4671 9.34237 14.3898 9.04007 14.3881C8.91355 14.3881 8.79785 14.3978 8.65303 14.3978C8.51175 14.3978 8.36902 14.3889 8.29038 14.3881V14.4392H8.32351C8.39815 14.4394 8.50447 14.4518 8.50447 14.6324V15.8545C8.50447 15.9511 8.4139 15.9948 8.32351 15.9951H8.29038V16.0459C8.40598 16.0454 8.51585 16.0363 8.62872 16.0363C8.7629 16.0363 8.8988 16.0454 9.03179 16.0459V15.9951H8.99884C8.88933 15.9948 8.79148 15.9814 8.79148 15.7915V15.2665ZM8.91973 15.2006H8.79148V14.4643L8.80058 14.4636C8.83362 14.4609 8.86603 14.4543 8.93876 14.4543C9.15777 14.4543 9.30041 14.5966 9.30059 14.8159C9.29995 15.1029 9.16232 15.2005 8.91973 15.2006ZM8.91973 15.1801C9.15777 15.1778 9.27783 15.0952 9.28011 14.8159C9.27865 14.6058 9.14821 14.4754 8.93876 14.4745C8.87386 14.4745 8.84318 14.4805 8.81251 14.4835V15.1801H8.91973Z" fill="#231F20"/>
<path d="M11.5646 15.6685L11.5688 15.6637V14.7623C11.5688 14.5649 11.4321 14.5361 11.3599 14.5361H11.3073V14.4639C11.4204 14.4639 11.5306 14.4734 11.6438 14.4734C11.7427 14.4734 11.8406 14.4639 11.9399 14.4639V14.5361H11.9037C11.8026 14.5361 11.6897 14.5553 11.6897 14.8414V15.9356C11.6897 16.0198 11.6921 16.104 11.7039 16.1786H11.6129L10.3746 14.798V15.789C10.3746 15.9984 10.4152 16.0702 10.6002 16.0702H10.6413V16.1425C10.538 16.1425 10.4344 16.1331 10.3311 16.1331C10.2225 16.1331 10.112 16.1425 10.0039 16.1425V16.0702H10.0373C10.2033 16.0702 10.2541 15.9572 10.2541 15.7654V14.7521C10.2541 14.6176 10.1434 14.5361 10.0352 14.5361H10.0039V14.4639C10.0949 14.4639 10.1894 14.4734 10.2806 14.4734C10.3521 14.4734 10.4221 14.4639 10.4944 14.4639L11.5646 15.6685Z" fill="#231F20"/>
<path d="M11.7147 16.1026L11.6159 16.0992L10.3952 14.7391V15.7027C10.3981 15.9123 10.4297 15.9714 10.6111 15.9737H10.6621V16.0666H10.6517C10.5476 16.0666 10.4445 16.0566 10.3414 16.0566C10.2341 16.0566 10.1229 16.0666 10.0146 16.0666H10.0039V15.9737H10.0481C10.207 15.9731 10.2525 15.8707 10.254 15.6786V14.666C10.2538 14.5378 10.1488 14.4604 10.0461 14.4604H10.0039V14.3672H10.0146C10.1064 14.3672 10.2006 14.3767 10.2914 14.3767C10.362 14.3767 10.4316 14.3672 10.5123 14.3704L11.5695 15.5606V14.6761C11.5688 14.4851 11.4408 14.4615 11.3708 14.4604H11.3074V14.3672H11.3178C11.4314 14.3672 11.5423 14.3767 11.6547 14.3767C11.7526 14.3767 11.8511 14.3672 11.9503 14.3672H11.961V14.4604H11.9146C11.8153 14.4628 11.7131 14.4717 11.7107 14.7553V15.8495C11.7107 15.9336 11.7128 16.017 11.7251 16.0908L11.7263 16.1026H11.7147ZM11.6236 16.0816H11.7025C11.6919 16.0097 11.6897 15.9295 11.6897 15.8495V14.7553C11.6899 14.4667 11.8116 14.4399 11.9146 14.4392H11.9399V14.3881C11.8451 14.3889 11.7502 14.3975 11.6547 14.3975C11.5443 14.3975 11.4371 14.3889 11.3283 14.3881V14.4392H11.3708C11.445 14.4399 11.5905 14.4723 11.5905 14.6761L11.5871 15.5851L11.5752 15.5978L10.5053 14.3881C10.4336 14.3881 10.364 14.3975 10.2914 14.3975C10.2022 14.3975 10.1123 14.3889 10.0249 14.3881V14.4392H10.0461C10.1592 14.4399 10.2749 14.5252 10.2749 14.666V15.6786C10.2749 15.8716 10.2205 15.9944 10.0481 15.9951L10.0249 15.9948V16.046C10.1288 16.0453 10.2359 16.0363 10.3414 16.0363C10.4423 16.0363 10.5422 16.0453 10.6416 16.046V15.9951H10.6111C10.4219 15.9948 10.3747 15.9123 10.3742 15.7027V14.6853L11.6236 16.0816ZM11.5752 15.5824L11.583 15.5755L11.5752 15.5824ZM11.5695 15.5776V15.5769L11.5677 15.5752L11.5695 15.5776Z" fill="#231F20"/>
<path d="M12.3315 15.7623C12.3073 15.8437 12.2782 15.9069 12.2782 15.9495C12.2782 16.022 12.3796 16.0339 12.4587 16.0339H12.4856V16.1061C12.389 16.1008 12.2908 16.0968 12.1941 16.0968C12.1075 16.0968 12.0213 16.1008 11.9346 16.1061V16.0339H11.9491C12.0428 16.0339 12.1224 15.9785 12.158 15.8773L12.5429 14.7739C12.5742 14.6848 12.6176 14.5646 12.6322 14.4754C12.7088 14.4491 12.8053 14.4013 12.8508 14.372C12.8583 14.3696 12.8628 14.3672 12.8701 14.3672C12.8773 14.3672 12.8818 14.3672 12.8871 14.3747C12.8942 14.3938 12.9012 14.4154 12.9086 14.4346L13.3513 15.6925C13.3802 15.7765 13.4087 15.8654 13.4395 15.9379C13.4688 16.0054 13.5193 16.0339 13.599 16.0339H13.6134V16.1061C13.5051 16.1008 13.3966 16.0968 13.2817 16.0968C13.1638 16.0968 13.0432 16.1008 12.9206 16.1061V16.0339H12.9471C13.002 16.0339 13.0964 16.0243 13.0964 15.9642C13.0964 15.9331 13.0747 15.8681 13.0478 15.7908L12.9542 15.512H12.4084L12.3315 15.7623ZM12.6826 14.6969H12.6775L12.4542 15.3775H12.9035L12.6826 14.6969Z" fill="#231F20"/>
<path d="M13.623 16.1267C13.515 16.1221 13.4066 16.1168 13.2921 16.1168C13.1742 16.1168 13.0542 16.1221 12.9315 16.1267L12.9204 16.1273V16.0334H12.9574C13.0131 16.0334 13.0958 16.0208 13.0959 15.9746C13.0965 15.9472 13.075 15.8813 13.0485 15.8047L12.9569 15.5327H12.4264L12.3517 15.7758C12.3274 15.8574 12.2982 15.9211 12.2987 15.9601C12.2994 16.0189 12.3892 16.0334 12.4691 16.0334H12.506V16.1273L12.4952 16.1267C12.399 16.1221 12.3009 16.1168 12.2046 16.1168C12.1188 16.1168 12.0319 16.1221 11.9458 16.1267L11.9346 16.1273V16.0334H11.9595C12.0489 16.0332 12.1236 15.9821 12.1583 15.8845L12.5434 14.7806C12.5745 14.6916 12.6182 14.572 12.6388 14.4759C12.7144 14.4502 12.8112 14.4018 12.8573 14.3728C12.864 14.3703 12.8707 14.3672 12.8803 14.3672C12.8863 14.3669 12.8992 14.3685 12.907 14.3811C12.9138 14.4007 12.9214 14.4224 12.9288 14.4418L13.3715 15.6995C13.3998 15.7837 13.4286 15.8725 13.46 15.9438C13.4879 16.0079 13.532 16.0332 13.6094 16.0334H13.6337V16.1273L13.623 16.1267ZM12.9414 16.1054C13.0604 16.1012 13.1772 16.0965 13.2921 16.0965C13.4036 16.0965 13.5084 16.1012 13.6129 16.1054V16.055H13.6094C13.5269 16.0556 13.4702 16.0232 13.4407 15.9522C13.4094 15.8796 13.3802 15.7903 13.3518 15.7061L12.909 14.4483C12.9017 14.4291 12.8948 14.4076 12.8886 14.3905C12.8863 14.3882 12.8868 14.3882 12.8849 14.3882H12.8803C12.8755 14.3882 12.8726 14.3895 12.8664 14.3912C12.8202 14.4212 12.7238 14.4686 12.6522 14.4874C12.6376 14.5785 12.5942 14.6987 12.5629 14.7877L12.1782 15.8912C12.1416 15.9958 12.0571 16.0552 11.9595 16.055H11.9554V16.1054C12.038 16.1012 12.1212 16.0965 12.2046 16.0965C12.2977 16.0965 12.3926 16.1012 12.4846 16.1054V16.055H12.4691C12.3905 16.054 12.2811 16.0454 12.2783 15.9601C12.2785 15.9125 12.308 15.851 12.3316 15.7697L12.3418 15.7727L12.3316 15.7694L12.4107 15.5123H12.9715L13.0679 15.798C13.0949 15.8754 13.1167 15.9394 13.1167 15.9746C13.1132 16.0482 13.012 16.0537 12.9574 16.055H12.9414V16.1054ZM12.4499 15.3982L12.6801 14.6966H12.693V14.7073L12.6905 14.7079L12.693 14.7073V14.6966H12.7002L12.9288 15.3982H12.4499ZM12.4786 15.3773H12.8996L12.6904 14.7329L12.4786 15.3773ZM12.6824 14.7104L12.6881 14.7086L12.6824 14.7104Z" fill="#231F20"/>
<path d="M13.675 14.5621C13.4947 14.5621 13.4874 14.6056 13.4512 14.7808H13.3789C13.3884 14.7135 13.4007 14.6463 13.4081 14.5765C13.4175 14.5089 13.4221 14.4418 13.4221 14.3723H13.4803C13.4992 14.4445 13.5594 14.4418 13.6243 14.4418H14.8654C14.93 14.4418 14.9901 14.4394 14.9948 14.3672L15.0523 14.3771C15.0434 14.4418 15.0339 14.5068 15.0263 14.5718C15.021 14.6367 15.021 14.7015 15.021 14.7664L14.9492 14.7932C14.9449 14.7043 14.9328 14.5621 14.7713 14.5621H14.377V15.8415C14.377 16.027 14.4613 16.0482 14.5765 16.0482H14.6225V16.1205C14.5286 16.1205 14.3605 16.1112 14.2304 16.1112C14.0864 16.1112 13.9176 16.1205 13.8238 16.1205V16.0482H13.8696C14.0022 16.0482 14.0693 16.0363 14.0693 15.8464V14.5621H13.675Z" fill="#231F20"/>
<path d="M14.6346 16.1428C14.5401 16.1428 14.3716 16.1333 14.2423 16.1333C14.0987 16.1333 13.9303 16.1428 13.836 16.1428H13.8254V16.0499H13.8817C14.0144 16.0468 14.0675 16.0451 14.0707 15.8585L14.0705 14.5845H13.6871V14.5634H14.0917V15.8585C14.0917 16.0515 14.0138 16.0706 13.8817 16.071H13.8462V16.1223C13.9414 16.1215 14.1029 16.1125 14.2423 16.1125C14.368 16.1125 14.5289 16.1215 14.6239 16.1223V16.071H14.5886C14.4727 16.0706 14.379 16.0428 14.3788 15.8536V14.5634H14.7835C14.945 14.5641 14.966 14.7012 14.9707 14.7906L15.0229 14.7714C15.0229 14.7086 15.0233 14.6457 15.0282 14.5828C15.0347 14.5208 15.0438 14.4593 15.0525 14.3979L15.0162 14.3916C15.0052 14.4616 14.9373 14.4655 14.8775 14.4644H13.6241C13.5674 14.465 13.5061 14.4618 13.4842 14.3944H13.4449C13.4444 14.461 13.4396 14.5257 13.4302 14.5897C13.4236 14.656 13.412 14.7197 13.4028 14.783H13.4546C13.4861 14.6152 13.507 14.5608 13.6871 14.5634V14.5845C13.5088 14.5875 13.5127 14.6177 13.4735 14.7955L13.4718 14.8036H13.3789L13.3804 14.7917C13.3905 14.724 13.4023 14.6566 13.4093 14.5873C13.4191 14.52 13.4236 14.4533 13.4236 14.3844V14.3737H13.5L13.502 14.3813C13.5188 14.4419 13.5626 14.4424 13.6241 14.4434H14.8775C14.944 14.4424 14.9925 14.4415 14.9968 14.3787L14.9972 14.3672L15.0084 14.3694L15.0766 14.3801L15.075 14.3907C15.0651 14.4552 15.056 14.52 15.0487 14.5845C15.0438 14.6488 15.0438 14.7136 15.0438 14.7785V14.7858L15.0368 14.7886L14.9517 14.8198L14.9513 14.8058C14.945 14.7154 14.9355 14.5845 14.7835 14.5845H14.3995V15.8536C14.402 16.0349 14.474 16.0475 14.5886 16.0499H14.6446V16.1428H14.6346Z" fill="#231F20"/>
<path d="M15.2129 16.0702H15.2466C15.3332 16.0702 15.4243 16.0584 15.4243 15.9331V14.6733C15.4243 14.548 15.3332 14.5361 15.2466 14.5361H15.2129V14.4639C15.3067 14.4639 15.4507 14.4734 15.5684 14.4734C15.689 14.4734 15.8333 14.4639 15.9466 14.4639V14.5361H15.9128C15.8259 14.5361 15.7345 14.548 15.7345 14.6733V15.9331C15.7345 16.0584 15.8259 16.0702 15.9128 16.0702H15.9466V16.1425C15.8311 16.1425 15.6866 16.1332 15.5665 16.1332C15.4485 16.1332 15.3067 16.1425 15.2129 16.1425V16.0702Z" fill="#231F20"/>
<path d="M15.8572 16.0666C15.741 16.0666 15.5972 16.0566 15.4772 16.0566C15.3595 16.0566 15.2175 16.0666 15.1236 16.0666H15.1133V15.9737H15.1573C15.244 15.9723 15.3239 15.9646 15.3245 15.847V14.5872C15.3239 14.4697 15.244 14.4619 15.1573 14.4604H15.1133V14.3672H15.1236C15.2175 14.3672 15.3621 14.3767 15.4791 14.3767C15.599 14.3767 15.7433 14.3672 15.8572 14.3672H15.8673V14.4604H15.8236C15.7355 14.4619 15.6564 14.4697 15.6556 14.5872V15.847C15.6564 15.9646 15.7355 15.9723 15.8236 15.9737H15.8673V16.0666H15.8572ZM15.8463 16.0459V15.9948H15.8236C15.7373 15.9948 15.6352 15.9798 15.6352 15.847V14.5872C15.6352 14.4543 15.7373 14.4394 15.8236 14.4392H15.8463V14.3881C15.7355 14.3889 15.5962 14.3975 15.4791 14.3975C15.365 14.3975 15.2272 14.3889 15.134 14.3881V14.4392H15.1573C15.2427 14.4394 15.3452 14.4543 15.3455 14.5872V15.847C15.3452 15.9798 15.2427 15.9948 15.1573 15.9948H15.134V16.0459C15.2267 16.0448 15.3627 16.0363 15.4772 16.0363C15.5938 16.0363 15.7329 16.0453 15.8463 16.0459Z" fill="#231F20"/>
<path d="M16.8734 14.3672C17.386 14.3672 17.7946 14.6849 17.7946 15.1971C17.7946 15.7503 17.3978 16.118 16.8858 16.118C16.3757 16.118 15.9863 15.7716 15.9863 15.2545C15.9863 14.7546 16.3734 14.3672 16.8734 14.3672ZM16.9097 16.012C17.3764 16.012 17.4578 15.6006 17.4578 15.2499C17.4578 14.8985 17.2682 14.473 16.8688 14.473C16.4481 14.473 16.3229 14.8482 16.3229 15.1701C16.3229 15.6006 16.5203 16.012 16.9097 16.012Z" fill="#231F20"/>
<path d="M15.9863 15.265C15.9873 14.7592 16.3788 14.368 16.884 14.3672V14.3881C16.3897 14.3881 16.0073 14.7703 16.0067 15.265C16.0077 15.7762 16.3914 16.1174 16.8966 16.1175C17.4034 16.1174 17.7946 15.7551 17.7951 15.2072C17.7948 14.7014 17.3926 14.3886 16.884 14.3881V14.3672C17.4003 14.3677 17.8148 14.6886 17.8156 15.2072C17.8151 15.7662 17.4135 16.1377 16.8966 16.1386C16.3822 16.1377 15.9873 15.7878 15.9863 15.265ZM16.3231 15.1806C16.3239 14.8571 16.4501 14.4728 16.8795 14.4728C17.2878 14.4737 17.4782 14.9071 17.4791 15.2603C17.4782 15.6111 17.3958 16.0324 16.9205 16.0324V16.012C17.3778 16.0116 17.4571 15.6111 17.458 15.2603C17.458 14.912 17.2704 14.4945 16.8795 14.494C16.4669 14.4944 16.3451 14.8604 16.344 15.1806C16.3442 15.6091 16.5397 16.0113 16.9205 16.012V16.0324C16.5214 16.0321 16.3239 15.6135 16.3231 15.1806Z" fill="#231F20"/>
<path d="M19.3782 15.6685L19.3832 15.6637V14.7623C19.3832 14.5649 19.2457 14.5361 19.1736 14.5361H19.1212V14.4639C19.2339 14.4639 19.3448 14.4734 19.4575 14.4734C19.5564 14.4734 19.6548 14.4639 19.7536 14.4639V14.5361H19.7175C19.6167 14.5361 19.5032 14.5553 19.5032 14.8414V15.9356C19.5032 16.0198 19.5057 16.104 19.5179 16.1786H19.4265L18.1878 14.798V15.789C18.1878 15.9984 18.2287 16.0702 18.4136 16.0702H18.4548V16.1425C18.3513 16.1425 18.2481 16.1331 18.1447 16.1331C18.0364 16.1331 17.9256 16.1425 17.8174 16.1425V16.0702H17.8512C18.0175 16.0702 18.0676 15.9572 18.0676 15.7654V14.7521C18.0676 14.6176 17.9574 14.5361 17.8486 14.5361H17.8174V14.4639C17.9088 14.4639 18.0025 14.4734 18.0941 14.4734C18.1661 14.4734 18.2355 14.4639 18.3079 14.4639L19.3782 15.6685Z" fill="#231F20"/>
<path d="M19.528 16.1026L19.4286 16.0992L18.2082 14.7391V15.7029C18.211 15.9123 18.2428 15.9712 18.4233 15.9733H18.4751V16.0666H18.4649C18.3608 16.0666 18.2576 16.057 18.1547 16.057C18.047 16.057 17.9363 16.0666 17.8272 16.0666H17.8174V15.9733H17.8611C18.0196 15.9728 18.0653 15.8707 18.0673 15.6792V14.666C18.0672 14.5378 17.962 14.4604 17.8587 14.4604H17.8174V14.3672H17.8272C17.9194 14.3672 18.0132 14.3767 18.104 14.3767C18.1754 14.3767 18.2445 14.3672 18.3259 14.3709L19.3827 15.5606V14.6761C19.3819 14.4851 19.2538 14.4619 19.1836 14.4604H19.1202V14.3672H19.1313C19.2442 14.3672 19.3552 14.3767 19.4672 14.3767C19.5656 14.3767 19.6638 14.3672 19.7637 14.3672H19.7738V14.4604H19.7274C19.6283 14.4629 19.526 14.472 19.524 14.7553V15.8495C19.524 15.9336 19.5259 16.0175 19.5375 16.0908L19.5396 16.1026H19.528ZM19.4365 16.0816H19.5153C19.5051 16.0093 19.5027 15.9295 19.5027 15.8495V14.7553C19.5027 14.4661 19.6242 14.4399 19.7274 14.4392H19.7534V14.3881C19.6579 14.3889 19.5634 14.3975 19.4672 14.3975C19.3576 14.3975 19.2502 14.3889 19.1414 14.3881V14.4392H19.1836C19.2579 14.4399 19.4031 14.4728 19.4031 14.6761L19.4005 15.5851L19.3959 15.5899L19.3882 15.5978L18.318 14.3881C18.2468 14.3881 18.1768 14.3975 18.104 14.3975C18.0154 14.3975 17.9251 14.3889 17.8376 14.3881V14.4392H17.8587C17.9718 14.4399 18.0879 14.5252 18.0879 14.666V15.6792C18.0879 15.8716 18.0342 15.9944 17.8611 15.9951L17.8376 15.9948V16.046C17.9419 16.0453 18.049 16.0363 18.1547 16.0363C18.255 16.0363 18.3547 16.0453 18.4544 16.046V15.9951H18.4233C18.2347 15.9948 18.1873 15.9123 18.1873 15.7029V14.685L19.4365 16.0816ZM19.3882 15.5824L19.3959 15.5755L19.3882 15.5824ZM19.3827 15.5776V15.5769L19.3808 15.5752L19.3827 15.5776Z" fill="#231F20"/>
<path d="M20.1383 15.7623C20.1148 15.8437 20.0856 15.9069 20.0856 15.9495C20.0856 16.022 20.187 16.0339 20.2659 16.0339H20.2927V16.1061C20.1964 16.1008 20.0977 16.0968 20.0014 16.0968C19.9149 16.0968 19.8284 16.1008 19.7422 16.1061V16.0339H19.7558C19.8501 16.0339 19.9298 15.9785 19.9649 15.8773L20.3505 14.7739C20.3815 14.6848 20.4251 14.5646 20.4389 14.4754C20.5162 14.4491 20.6121 14.4013 20.6585 14.372C20.6652 14.3696 20.67 14.3672 20.6775 14.3672C20.6845 14.3672 20.689 14.3672 20.694 14.3747C20.7012 14.3938 20.7084 14.4154 20.7157 14.4346L21.1582 15.6925C21.1869 15.7765 21.2158 15.8654 21.2473 15.9379C21.2762 16.0054 21.3266 16.0339 21.4059 16.0339H21.4206V16.1061C21.3123 16.1008 21.204 16.0968 21.0885 16.0968C20.9709 16.0968 20.8504 16.1008 20.7276 16.1061V16.0339H20.7543C20.8093 16.0339 20.9036 16.0243 20.9036 15.9642C20.9036 15.9331 20.882 15.8681 20.8552 15.7908L20.7614 15.512H20.2156L20.1383 15.7623ZM20.49 14.6969H20.4851L20.2609 15.3775H20.7113L20.49 14.6969Z" fill="#231F20"/>
<path d="M21.4301 16.1265C21.3217 16.1223 21.2137 16.1169 21.099 16.1169C20.9817 16.1169 20.8612 16.1223 20.7387 16.1265L20.728 16.1271V16.0336H20.7646C20.8205 16.0336 20.9033 16.0206 20.9034 15.9744C20.9041 15.947 20.8823 15.8814 20.8553 15.8045L20.7641 15.5325H20.2332L20.1589 15.7756C20.1347 15.858 20.1063 15.9209 20.1066 15.9597C20.1066 16.0187 20.1968 16.0336 20.2762 16.0336H20.313V16.1271L20.3022 16.1265C20.2062 16.1223 20.1077 16.1169 20.0119 16.1169C19.9257 16.1169 19.8394 16.1223 19.7527 16.1265L19.7422 16.1271V16.0336H19.7663C19.856 16.0332 19.931 15.9818 19.9662 15.8843L20.3508 14.7804C20.3817 14.6914 20.4251 14.5717 20.4462 14.4761C20.5217 14.4498 20.6183 14.4016 20.665 14.3726C20.6713 14.3701 20.678 14.3673 20.6879 14.3673C20.6941 14.3667 20.7067 14.3683 20.7141 14.3814C20.7214 14.4003 20.7285 14.4222 20.7363 14.4416L21.1785 15.6993C21.2074 15.7835 21.2361 15.8722 21.2673 15.9441C21.2957 16.0077 21.3392 16.033 21.416 16.0336H21.4409V16.1271L21.4301 16.1265ZM20.7484 16.1054C20.8674 16.101 20.9843 16.0963 21.099 16.0963C21.2108 16.0963 21.3154 16.101 21.4204 16.1052L21.4201 16.0548H21.416C21.3346 16.055 21.2779 16.023 21.2479 15.952C21.2162 15.8794 21.1876 15.7901 21.1587 15.7062L20.7163 14.4481C20.7092 14.4289 20.7015 14.4074 20.6959 14.3908C20.6939 14.388 20.6941 14.388 20.6926 14.388H20.6879C20.6827 14.388 20.68 14.3895 20.6743 14.3912C20.6272 14.4206 20.531 14.4688 20.46 14.4872C20.445 14.5783 20.4014 14.6983 20.3705 14.7875L19.9853 15.891C19.9487 15.9956 19.8647 16.055 19.7663 16.0548H19.7628V16.1052C19.8456 16.101 19.9282 16.0963 20.0119 16.0963C20.105 16.0963 20.2001 16.101 20.2925 16.1052V16.0548H20.2762C20.198 16.0538 20.0885 16.0455 20.0854 15.9597C20.086 15.9123 20.1156 15.8509 20.1392 15.7695L20.1488 15.7725L20.1392 15.7692L20.2183 15.5121H20.7788L20.8754 15.7978C20.9019 15.8752 20.9238 15.9392 20.9238 15.9744C20.9203 16.048 20.8192 16.0535 20.7646 16.0548H20.7484V16.1054ZM20.257 15.3979L20.488 14.6964H20.5004V14.7071L20.4977 14.7077L20.5004 14.7071V14.6964H20.5077L20.7351 15.3979H20.257ZM20.2861 15.3771H20.7067L20.4976 14.733L20.2861 15.3771ZM20.4904 14.7102L20.4952 14.7084L20.4904 14.7102Z" fill="#231F20"/>
<path d="M22.0045 15.9066C22.0045 16.0033 22.0713 16.0317 22.1485 16.0418C22.2469 16.049 22.3552 16.049 22.4661 16.0367C22.5669 16.0246 22.6536 15.9672 22.6967 15.9066C22.735 15.8538 22.7566 15.7865 22.7714 15.7337H22.8409C22.8144 15.8708 22.7808 16.0056 22.752 16.1425C22.5408 16.1425 22.3285 16.1332 22.1172 16.1332C21.9054 16.1332 21.694 16.1425 21.4824 16.1425V16.0702H21.5157C21.6025 16.0702 21.6966 16.0584 21.6966 15.9093V14.6733C21.6966 14.548 21.6025 14.5361 21.5157 14.5361H21.4824V14.4639C21.6097 14.4639 21.7349 14.4734 21.8622 14.4734C21.9851 14.4734 22.105 14.4639 22.228 14.4639V14.5361H22.1676C22.0762 14.5361 22.0045 14.5386 22.0045 14.6659V15.9066Z" fill="#231F20"/>
<path d="M22.7626 16.0666C22.5505 16.0666 22.3387 16.057 22.1278 16.057C21.9163 16.057 21.7046 16.0666 21.4925 16.0666H21.4824V15.9737H21.5263C21.6132 15.9715 21.6958 15.9655 21.6968 15.8232V14.5868C21.6958 14.4697 21.6136 14.4619 21.5263 14.4604H21.4824V14.3672H21.4925C21.6206 14.3672 21.7458 14.3767 21.8726 14.3767C21.995 14.3767 22.1147 14.3672 22.2386 14.3672H22.2482V14.4604H22.1781C22.0848 14.4628 22.0269 14.4585 22.0249 14.5798V15.8204C22.0255 15.9105 22.0844 15.9345 22.1596 15.9451C22.2019 15.9481 22.2467 15.9497 22.2929 15.9497C22.3517 15.9497 22.4128 15.947 22.475 15.9404C22.5729 15.9288 22.6571 15.8721 22.6988 15.8148C22.736 15.7633 22.7569 15.6975 22.7715 15.6451L22.7735 15.6372H22.8641L22.8619 15.6498C22.8348 15.7873 22.8017 15.9215 22.7725 16.0586L22.7706 16.0666H22.7626ZM22.7538 16.0459C22.7816 15.9152 22.8131 15.7876 22.8391 15.6579H22.7895C22.7746 15.7101 22.7532 15.7746 22.7156 15.8271C22.6706 15.8893 22.5816 15.9481 22.4773 15.9611C22.4144 15.9674 22.3518 15.9707 22.2929 15.9707C22.2463 15.9707 22.2014 15.9686 22.1576 15.9655C22.0794 15.9569 22.0037 15.9234 22.0038 15.8204V14.5798C22.0038 14.4462 22.0884 14.4392 22.1781 14.4392H22.2277V14.3881C22.1092 14.3889 21.9923 14.3978 21.8726 14.3978C21.7483 14.3978 21.6264 14.3889 21.5034 14.3881V14.4392H21.5263C21.612 14.4392 21.717 14.4543 21.717 14.5868V15.8232C21.717 15.9788 21.6125 15.9948 21.5263 15.9948H21.5034V16.0459C21.7111 16.0454 21.919 16.0363 22.1278 16.0363C22.3369 16.0363 22.5456 16.0454 22.7538 16.0459Z" fill="#231F20"/>
<path d="M22.8899 14.3672C23.035 14.3672 23.1432 14.4785 23.1432 14.621C23.1432 14.7632 23.035 14.8735 22.8899 14.8735C22.7451 14.8735 22.6367 14.7632 22.6367 14.621C22.6367 14.4785 22.7451 14.3672 22.8899 14.3672ZM22.8899 14.8264C23.0035 14.8264 23.0902 14.7298 23.0902 14.621C23.0902 14.5119 23.0045 14.4146 22.8899 14.4146C22.7759 14.4146 22.6892 14.5119 22.6892 14.621C22.6892 14.7298 22.7759 14.8264 22.8899 14.8264ZM22.764 14.7545V14.7422C22.7949 14.7378 22.8007 14.7386 22.8007 14.7196V14.5319C22.8007 14.5055 22.7981 14.4964 22.765 14.4979V14.485H22.8946C22.9391 14.485 22.9802 14.5063 22.9802 14.5523C22.9802 14.5899 22.9554 14.6179 22.9203 14.6287L22.962 14.6867C22.9813 14.7129 23.0035 14.7378 23.0177 14.7465V14.7545H22.9684C22.9448 14.7545 22.9238 14.7048 22.8774 14.6381H22.8494V14.722C22.8494 14.7386 22.8552 14.7378 22.8863 14.7422V14.7545H22.764ZM22.8494 14.621H22.8792C22.9119 14.621 22.927 14.5963 22.927 14.5563C22.927 14.516 22.9037 14.5018 22.8776 14.5018H22.8494V14.621Z" fill="#231F20"/>
<path d="M7.88281 5.90387C7.88281 3.6545 9.70617 1.83105 11.9555 1.83105C14.2049 1.83105 16.0283 3.6545 16.0283 5.90387C16.0283 8.15323 14.2049 9.97677 11.9555 9.97677C9.70617 9.97677 7.88281 8.15323 7.88281 5.90387Z" fill="white"/>
<path d="M14.4049 5.85161C14.4032 4.80872 13.7513 3.91921 12.8327 3.56693V8.1363C13.7513 7.78357 14.4032 6.89487 14.4049 5.85161ZM11.0802 8.13539V3.56739C10.1623 3.92075 9.51146 4.80899 9.509 5.85161C9.51146 6.89405 10.1623 7.78229 11.0802 8.13539ZM11.9569 1.98953C9.82405 1.99026 8.0959 3.71877 8.09554 5.85161C8.0959 7.98437 9.82405 9.71242 11.9569 9.71288C14.0898 9.71242 15.8183 7.98437 15.8188 5.85161C15.8183 3.71877 14.0898 1.99026 11.9569 1.98953ZM11.9475 10.0774C9.61332 10.0885 7.69238 8.19756 7.69238 5.89576C7.69238 3.38015 9.61332 1.64017 11.9475 1.64063H13.0412C15.3476 1.64017 17.4526 3.37933 17.4526 5.89576C17.4526 8.19674 15.3476 10.0774 13.0412 10.0774H11.9475Z" fill="#0069AA"/>
</svg>
