<svg width="19" height="18" viewBox="0 0 19 18" fill="none" xmlns="http://www.w3.org/2000/svg">
<path d="M18.7744 0H0.774414V18H18.7744V0Z" fill="#2C6EB6"/>
<path fill-rule="evenodd" clip-rule="evenodd" d="M7.31738 15.1801V8.73047L18.7968 8.74077V10.5224L17.4699 11.9402L18.7968 13.371V15.1905H16.6783L15.5525 13.9481L14.4347 15.1952L7.31738 15.1801Z" fill="white"/>
<path fill-rule="evenodd" clip-rule="evenodd" d="M8.09863 14.4664V9.43359H12.3659V10.5929H9.48023V11.3799H12.2971V12.5201H9.48023V13.2931H12.3659V14.4664H8.09863Z" fill="#2C6EB6"/>
<path fill-rule="evenodd" clip-rule="evenodd" d="M12.3252 14.4664L14.6865 11.9471L12.3252 9.43359H14.1529L15.5958 11.0288L17.0428 9.43359H18.7919V9.47319L16.4808 11.9471L18.7919 14.3949V14.4664H17.0251L15.5566 12.8552L14.1032 14.4664H12.3252Z" fill="#2C6EB6"/>
<path fill-rule="evenodd" clip-rule="evenodd" d="M7.83905 2.95703H10.6061L11.5781 5.16392V2.95703H14.9943L15.5834 4.61052L16.1745 2.95703H18.7831V9.4068H4.99707L7.83905 2.95703Z" fill="white"/>
<path fill-rule="evenodd" clip-rule="evenodd" d="M8.35506 3.66016L6.12207 8.68863H7.65366L8.07486 7.68173H10.3577L10.7786 8.68863H12.3484L10.1245 3.66016H8.35506ZM8.54706 6.55314L9.21665 4.95245L9.88595 6.55314H8.54706Z" fill="#2C6EB6"/>
<path fill-rule="evenodd" clip-rule="evenodd" d="M12.3252 8.68873V3.66016L14.4782 3.66765L15.5859 6.75904L16.7009 3.66016H18.773V8.68873L17.4396 8.70043V5.24635L16.181 8.68873H14.964L13.6793 5.23465V8.68873H12.3252Z" fill="#2C6EB6"/>
</svg>
