<svg width="30" height="18" viewBox="0 0 30 18" fill="none" xmlns="http://www.w3.org/2000/svg">
<path d="M19.1514 1.89844H11.2764V16.05H19.1514V1.89844Z" fill="#FF5F00"/>
<path d="M11.7834 8.99999C11.7822 7.63709 12.091 6.29177 12.6866 5.06588C13.2821 3.83998 14.1488 2.76565 15.2209 1.9242C13.8932 0.880612 12.2987 0.23162 10.6196 0.0514015C8.94054 -0.128817 7.24462 0.167005 5.72572 0.905069C4.20681 1.64313 2.92619 2.79366 2.03025 4.22513C1.13431 5.6566 0.65918 7.31126 0.65918 8.99999C0.65918 10.6887 1.13431 12.3434 2.03025 13.7749C2.92619 15.2063 4.20681 16.3569 5.72572 17.0949C7.24462 17.833 8.94054 18.1288 10.6196 17.9486C12.2987 17.7684 13.8932 17.1194 15.2209 16.0758C14.1488 15.2343 13.2822 14.16 12.6866 12.9341C12.0911 11.7082 11.7822 10.3629 11.7834 8.99999Z" fill="#EB001B"/>
<path d="M29.7752 9C29.7752 10.6887 29.3001 12.3434 28.4043 13.7748C27.5084 15.2063 26.2278 16.3568 24.7089 17.0949C23.19 17.833 21.4941 18.1288 19.8151 17.9486C18.136 17.7684 16.5415 17.1194 15.2139 16.0758C16.2851 15.2335 17.151 14.159 17.7465 12.9333C18.3419 11.7076 18.6513 10.3627 18.6513 9C18.6513 7.63732 18.3419 6.29242 17.7465 5.06671C17.151 3.84101 16.2851 2.7665 15.2139 1.92421C16.5415 0.880615 18.136 0.231615 19.8151 0.0513993C21.4941 -0.128817 23.19 0.167018 24.7089 0.90509C26.2278 1.64316 27.5084 2.79369 28.4043 4.22516C29.3001 5.65663 29.7752 7.31129 29.7752 9Z" fill="#F79E1B"/>
<path d="M28.8946 14.5525V14.2627H29.0114V14.2037H28.7139V14.2627H28.8307V14.5525H28.8946ZM29.4722 14.5525V14.2031H29.381L29.2761 14.4434L29.1712 14.2031H29.0799V14.5525H29.1443V14.2889L29.2427 14.5161H29.3095L29.4078 14.2884V14.5525H29.4722Z" fill="#F79E1B"/>
</svg>
