<svg width="30" height="18" viewBox="0 0 30 18" fill="none" xmlns="http://www.w3.org/2000/svg">
<g clip-path="url(#clip0_6893_17680)">
<path d="M0.572388 -0.130248L29.3323 -0.131836V18.1847L0.576471 18.1852L0.572388 -0.130248Z" fill="white"/>
<path d="M29.2309 10.0549C29.2309 10.0549 21.372 15.6004 6.97882 18.0823H29.2309V10.0549Z" fill="#F48120"/>
<path d="M3.00356 5.43213H1.80341V9.6237H2.9972C3.63199 9.6237 4.09038 9.47396 4.49274 9.13978C4.97087 8.74412 5.25367 8.14767 5.25367 7.53081C5.25378 6.2939 4.32951 5.43213 3.00356 5.43213ZM3.95869 8.58088C3.70175 8.81286 3.36814 8.91404 2.83987 8.91404H2.62048V6.14235H2.83987C3.36814 6.14235 3.68871 6.23684 3.95869 6.4813C4.24148 6.73301 4.41152 7.12323 4.41152 7.52468C4.41152 7.92715 4.24148 8.32928 3.95869 8.58088Z" fill="#231F20"/>
<path d="M6.44759 5.43213H5.62994V9.6237H6.44759V5.43213Z" fill="#231F20"/>
<path d="M8.44677 7.04062C7.95616 6.85913 7.8121 6.73934 7.8121 6.51292C7.8121 6.24884 8.0688 6.04829 8.42113 6.04829C8.66615 6.04829 8.86739 6.1489 9.08042 6.38769L9.50819 5.82754C9.15665 5.52002 8.73603 5.36279 8.2765 5.36279C7.53486 5.36279 6.96915 5.87779 6.96915 6.56385C6.96915 7.14135 7.23255 7.43697 8.0004 7.7133C8.32052 7.82617 8.48341 7.90137 8.56565 7.95197C8.729 8.0586 8.81079 8.20969 8.81079 8.38563C8.81079 8.72526 8.54081 8.97686 8.176 8.97686C7.78601 8.97686 7.4719 8.78186 7.28371 8.41785L6.75555 8.92649C7.13227 9.47938 7.58466 9.72451 8.20674 9.72451C9.05637 9.72451 9.65237 9.1596 9.65237 8.3482C9.65237 7.68222 9.37683 7.3807 8.44677 7.04062Z" fill="#231F20"/>
<path d="M9.91034 7.53078C9.91034 8.7628 10.8778 9.71816 12.1228 9.71816C12.4748 9.71816 12.7762 9.64896 13.1479 9.47393V8.51143C12.821 8.83858 12.5315 8.97051 12.1609 8.97051C11.3375 8.97051 10.7531 8.37349 10.7531 7.52465C10.7531 6.71994 11.356 6.08504 12.1229 6.08504C12.5129 6.08504 12.8081 6.22423 13.148 6.55671V5.59466C12.7891 5.41259 12.4941 5.33716 12.1422 5.33716C10.9034 5.33739 9.91034 6.31214 9.91034 7.53078Z" fill="#231F20"/>
<path d="M19.6304 8.24761L18.5126 5.43213H17.6194L19.3983 9.73123H19.8382L21.649 5.43213H20.7627L19.6304 8.24761Z" fill="#231F20"/>
<path d="M22.0187 9.6237H24.3374V8.91416H22.8356V7.78275H24.282V7.07275H22.8356V6.14235H24.3374V5.43213H22.0187V9.6237Z" fill="#231F20"/>
<path d="M27.5745 6.6696C27.5745 5.88485 27.034 5.43213 26.0911 5.43213H24.8788V9.6237H25.6955V7.93985H25.8021L26.9337 9.6237H27.9392L26.6197 7.85784C27.2355 7.73261 27.5745 7.31142 27.5745 6.6696ZM25.9344 7.3619H25.6956V6.09233H25.9473C26.4565 6.09233 26.7333 6.3057 26.7333 6.71361C26.7333 7.13503 26.4565 7.3619 25.9344 7.3619Z" fill="#231F20"/>
<path d="M15.6446 9.77236C16.8761 9.77236 17.8744 8.77404 17.8744 7.54255C17.8744 6.31106 16.8761 5.31274 15.6446 5.31274C14.4131 5.31274 13.4148 6.31106 13.4148 7.54255C13.4148 8.77404 14.4131 9.77236 15.6446 9.77236Z" fill="url(#paint0_linear_6893_17680)"/>
<path opacity="0.65" d="M15.6446 9.77236C16.8761 9.77236 17.8744 8.77404 17.8744 7.54255C17.8744 6.31106 16.8761 5.31274 15.6446 5.31274C14.4131 5.31274 13.4148 6.31106 13.4148 7.54255C13.4148 8.77404 14.4131 9.77236 15.6446 9.77236Z" fill="url(#paint1_linear_6893_17680)"/>
<path d="M28.0965 5.58974C28.0965 5.51623 28.0459 5.47607 27.9569 5.47607H27.8386V5.84451H27.9265V5.70159L28.0297 5.84451H28.137L28.0158 5.69262C28.0679 5.67867 28.0965 5.6409 28.0965 5.58974ZM27.9415 5.6401H27.9267V5.5438H27.9424C27.9859 5.5438 28.0086 5.55945 28.0086 5.59121C28.0086 5.62365 27.9856 5.6401 27.9415 5.6401Z" fill="#231F20"/>
<path d="M27.9748 5.33838C27.7959 5.33838 27.6539 5.48108 27.6539 5.65952C27.6539 5.83784 27.7975 5.98077 27.9748 5.98077C28.149 5.98077 28.2918 5.83625 28.2918 5.65952C28.2918 5.48358 28.149 5.33838 27.9748 5.33838ZM27.9734 5.92337C27.8326 5.92337 27.7175 5.80619 27.7175 5.65997C27.7175 5.5133 27.8312 5.39623 27.9734 5.39623C28.1135 5.39623 28.2277 5.51602 28.2277 5.65997C28.2277 5.80494 28.1136 5.92337 27.9734 5.92337Z" fill="#231F20"/>
</g>
<defs>
<linearGradient id="paint0_linear_6893_17680" x1="16.786" y1="9.32957" x2="15.2421" y2="6.91228" gradientUnits="userSpaceOnUse">
<stop stop-color="#F89F20"/>
<stop offset="0.2502" stop-color="#F79A20"/>
<stop offset="0.5331" stop-color="#F68D20"/>
<stop offset="0.6196" stop-color="#F58720"/>
<stop offset="0.7232" stop-color="#F48120"/>
<stop offset="1" stop-color="#F37521"/>
</linearGradient>
<linearGradient id="paint1_linear_6893_17680" x1="16.5421" y1="9.29671" x2="14.2856" y2="4.88634" gradientUnits="userSpaceOnUse">
<stop stop-color="#F58720" stop-opacity="0"/>
<stop offset="0.3587" stop-color="#E16F27" stop-opacity="0.2704"/>
<stop offset="0.703" stop-color="#D4602C" stop-opacity="0.5299"/>
<stop offset="0.9816" stop-color="#D05B2E" stop-opacity="0.74"/>
</linearGradient>
<clipPath id="clip0_6893_17680">
<rect x="0.709412" width="28.4894" height="18" rx="2" fill="white"/>
</clipPath>
</defs>
</svg>
