<svg width="29" height="18" viewBox="0 0 29 18" fill="none" xmlns="http://www.w3.org/2000/svg">
<path d="M28.6587 16.9389C28.6587 17.5284 28.1871 18 27.5976 18H1.18711C0.597591 18 0.125977 17.5284 0.125977 16.9389V1.06114C0.125977 0.471618 0.597591 0 1.18711 0H27.5976C28.1871 0 28.6587 0.471618 28.6587 1.06114V16.9389Z" fill="white"/>
<path d="M10.9702 5.22728L7.78678 12.8124H5.70381L4.13175 6.76003C4.05315 6.40632 3.93525 6.24911 3.66014 6.09191C3.18852 5.8561 2.4025 5.58099 1.73438 5.46309L1.77368 5.22728H5.11429C5.5466 5.22728 5.93962 5.50239 6.01822 6.01331L6.84355 10.4151L8.88721 5.26658H10.9702V5.22728ZM19.1056 10.3365C19.1056 8.33208 16.3545 8.21418 16.3545 7.34955C16.3545 7.07444 16.6296 6.79933 17.1798 6.72073C17.4549 6.68143 18.2409 6.64213 19.1056 7.07444L19.4593 5.46309C18.9877 5.30588 18.3981 5.10938 17.6121 5.10938C15.6863 5.10938 14.3108 6.13121 14.3108 7.62466C14.3108 8.7251 15.2933 9.31462 16.0401 9.66833C16.7868 10.022 17.0619 10.2578 17.0619 10.6116C17.0619 11.1225 16.4724 11.3583 15.8828 11.3583C14.9003 11.3583 14.3108 11.0832 13.8785 10.8867L13.5248 12.5373C13.9964 12.7338 14.8217 12.9303 15.6863 12.9303C17.73 12.9303 19.0663 11.9085 19.1056 10.3365ZM24.2147 12.8124H26.0226L24.4505 5.22728H22.7606C22.3676 5.22728 22.0532 5.46309 21.9353 5.7775L18.9877 12.8124H21.0313L21.4243 11.6727H23.9396L24.2147 12.8124ZM22.0139 10.1399L23.0357 7.31025L23.6252 10.1399H22.0139ZM13.7606 5.22728L12.1492 12.8124H10.1842L11.7955 5.22728H13.7606Z" fill="#1A1F71"/>
</svg>
