<svg width="25" height="18" viewBox="0 0 25 18" fill="none" xmlns="http://www.w3.org/2000/svg">
<path d="M24.1683 14.3714C24.1683 16.3714 22.5397 18 20.5397 18H0.796875V3.62859C0.796875 1.6286 2.42548 0 4.42547 0H24.1683V14.3714Z" fill="white"/>
<path d="M17.7773 10.6849H19.2774C19.3202 10.6849 19.4202 10.6707 19.4631 10.6707C19.7488 10.6135 19.9917 10.3563 19.9917 9.99919C19.9917 9.65638 19.7488 9.3992 19.4631 9.32781C19.4202 9.31348 19.3346 9.31348 19.2774 9.31348H17.7773V10.6849Z" fill="url(#paint0_linear_6885_330)"/>
<path d="M19.1143 1.18652C17.6857 1.18652 16.5143 2.34368 16.5143 3.7865V6.48654H20.1857C20.2715 6.48654 20.3714 6.48654 20.4428 6.50078C21.2714 6.5436 21.8857 6.97222 21.8857 7.71509C21.8857 8.30074 21.4714 8.80076 20.7 8.90082V8.92931C21.5428 8.98646 22.1857 9.4579 22.1857 10.1865C22.1857 10.9722 21.4714 11.4865 20.5286 11.4865H16.5V16.7722H20.3143C21.7429 16.7722 22.9143 15.6151 22.9143 14.1722V1.18652H19.1143Z" fill="url(#paint1_linear_6885_330)"/>
<path d="M19.8059 7.93227C19.8059 7.58946 19.5631 7.36086 19.2774 7.31804C19.2488 7.31804 19.1773 7.30371 19.1345 7.30371H17.7773V8.56093H19.1345C19.1773 8.56093 19.2631 8.56093 19.2774 8.54659C19.5631 8.50378 19.8059 8.27518 19.8059 7.93227Z" fill="url(#paint2_linear_6885_330)"/>
<path d="M4.68853 1.18652C3.25995 1.18652 2.08855 2.34368 2.08855 3.7865V10.2008C2.81708 10.5579 3.57419 10.7865 4.33139 10.7865C5.23137 10.7865 5.71705 10.2437 5.71705 9.50081V6.4722H7.94565V9.48648C7.94565 10.6579 7.21711 11.6151 4.74568 11.6151C3.24562 11.6151 2.07422 11.2865 2.07422 11.2865V16.7579H5.88851C7.31708 16.7579 8.48848 15.6007 8.48848 14.1579V1.18652H4.68853Z" fill="url(#paint3_linear_6885_330)"/>
<path d="M11.89 1.18652C10.4614 1.18652 9.29004 2.34368 9.29004 3.7865V7.18649C9.94718 6.62932 11.09 6.27218 12.9329 6.3579C13.9186 6.40081 14.9757 6.67223 14.9757 6.67223V7.77224C14.4472 7.50082 13.8186 7.25789 13.0043 7.20074C11.6043 7.10077 10.7614 7.78648 10.7614 8.98646C10.7614 10.2008 11.6043 10.8865 13.0043 10.7722C13.8186 10.715 14.4472 10.4579 14.9757 10.2008V11.3008C14.9757 11.3008 13.9328 11.5722 12.9329 11.6151C11.09 11.7007 9.94718 11.3436 9.29004 10.7865V16.7865H13.1043C14.5329 16.7865 15.7043 15.6293 15.7043 14.1865V1.18652H11.89Z" fill="url(#paint4_linear_6885_330)"/>
<defs>
<linearGradient id="paint0_linear_6885_330" x1="16.5036" y1="10.0009" x2="22.9232" y2="10.0009" gradientUnits="userSpaceOnUse">
<stop stop-color="#007940"/>
<stop offset="0.23" stop-color="#00873F"/>
<stop offset="0.74" stop-color="#40A737"/>
<stop offset="1" stop-color="#5CB531"/>
</linearGradient>
<linearGradient id="paint1_linear_6885_330" x1="16.5117" y1="8.97311" x2="22.9318" y2="8.97311" gradientUnits="userSpaceOnUse">
<stop stop-color="#007940"/>
<stop offset="0.23" stop-color="#00873F"/>
<stop offset="0.74" stop-color="#40A737"/>
<stop offset="1" stop-color="#5CB531"/>
</linearGradient>
<linearGradient id="paint2_linear_6885_330" x1="16.5034" y1="7.93053" x2="22.9233" y2="7.93053" gradientUnits="userSpaceOnUse">
<stop stop-color="#007940"/>
<stop offset="0.23" stop-color="#00873F"/>
<stop offset="0.74" stop-color="#40A737"/>
<stop offset="1" stop-color="#5CB531"/>
</linearGradient>
<linearGradient id="paint3_linear_6885_330" x1="2.08549" y1="8.97311" x2="8.60449" y2="8.97311" gradientUnits="userSpaceOnUse">
<stop stop-color="#1F286F"/>
<stop offset="0.48" stop-color="#004E94"/>
<stop offset="0.83" stop-color="#0066B1"/>
<stop offset="1" stop-color="#006FBC"/>
</linearGradient>
<linearGradient id="paint4_linear_6885_330" x1="9.25307" y1="8.97311" x2="15.5845" y2="8.97311" gradientUnits="userSpaceOnUse">
<stop stop-color="#6C2C2F"/>
<stop offset="0.17" stop-color="#882730"/>
<stop offset="0.57" stop-color="#BE1833"/>
<stop offset="0.86" stop-color="#DC0436"/>
<stop offset="1" stop-color="#E60039"/>
</linearGradient>
</defs>
</svg>
