<svg xmlns="http://www.w3.org/2000/svg" id="a" viewBox="0 0 240 180"><defs><clipPath id="b"><path d="M-260 0h240v180h-240z" class="w"/></clipPath><clipPath id="c"><path d="M0 0h240v180H0z" class="w"/></clipPath><clipPath id="p"><path d="M0 190V0h250L0 190z" class="w"/></clipPath><clipPath id="q"><path d="M0 0h240v180H0z" class="w"/></clipPath><style>.r{fill:#b22234}.s{fill:#fff}.u{fill:#c8102e}.w{fill:none}</style></defs><g style="clip-path:url(#b)"><path d="M-260 0H82v180h-342z" class="r"/><path d="M-260 124.61H82v13.85h-342zM-260 96.92H82v13.85h-342zM-260 152.31H82v13.85h-342zM-260 41.54H82v13.85h-342zM-260 69.23H82v13.85h-342zM-260 13.85H82V27.7h-342z" class="s"/></g><g class="a`"><g id="d"><path id="e" d="M-30 0h300v180H-30V0Z" style="fill:#012169"/><path id="f" d="M4.97 0H-30v21l265.03 159H270v-21.01L4.97 0Z" class="s"/><path id="g" d="M270 21V0h-34.97L-30 158.99V180H4.97L270 21Z" class="s"/><path id="h" d="M90 0h60v180H90V0Z" class="s"/><path id="i" d="M-30 60h300v60H-30V60Z" class="s"/><path id="j" d="M102 0h36v180h-36V0Z" class="u"/><path id="k" d="M-30 72h300v36H-30V72Z" class="u"/><path id="l" d="M270 180v-14l-76.69-46.01h-23.33l100.02 60Z" class="u"/><path id="m" d="M-30 0v13.99L46.69 60h23.32L-30 0Z" class="u"/><path id="n" d="M150 60h20.01L270 0h-23.3L150 58.01V60Z" class="u"/><path id="o" d="M90 120H70l-99.97 59.97v.03H-6.7l96.69-58.01V120Z" class="u"/></g></g><g style="clip-path:url(#p)"><path d="M0 0h342v180H0z" class="r"/><path d="M0 124.61h342v13.85H0zM0 96.92h342v13.85H0zM0 152.31h342v13.85H0zM0 41.54h342v13.85H0zM0 69.23h342v13.85H0zM0 13.85h342V27.7H0z" class="s"/><path d="M0 0h136.8v96.92H0z" style="fill:#3c3b6e"/><path d="m9.39 10.35-1.25 3.83 3.26-2.38 3.28 2.38-1.26-3.85 3.22-2.35h-3.99l-1.24-3.83-1.25 3.83H6.12l3.27 2.37zM8.11 33.56l3.28-2.38 3.29 2.38-1.26-3.86 3.22-2.34h-3.99l-1.24-3.82-1.26 3.82H6.12l3.26 2.36-1.27 3.84zM11.41 42.92l-1.25 3.82H6.15l3.24 2.37-1.25 3.84 3.27-2.38 3.27 2.38-1.26-3.84 3.25-2.37h-4.02l-1.24-3.82zM11.41 62.31l-1.25 3.82H6.15l3.24 2.36-1.25 3.84 3.27-2.37 3.27 2.37-1.26-3.84 3.25-2.36h-4.02l-1.24-3.82zM12.65 85.51l-1.24-3.82-1.25 3.82H6.15l3.24 2.36-1.25 3.85 3.27-2.38 3.27 2.38-1.26-3.85 3.25-2.36h-4.02zM22.79 13.85l-1.23 3.82h-4.03l3.26 2.37-1.24 3.83 3.25-2.37 3.26 2.37-1.25-3.84 3.24-2.36h-4.01l-1.25-3.82zM22.79 33.23l-1.25 3.82h-4.01l3.25 2.36-1.26 3.85 3.27-2.38 3.27 2.38-1.25-3.85 3.24-2.36h-4.01l-1.25-3.82zM22.79 52.61l-1.25 3.83h-4.01l3.25 2.36-1.26 3.84 3.27-2.38 3.27 2.38-1.25-3.84 3.24-2.36h-4.01l-1.25-3.83zM24.04 75.82 22.79 72l-1.25 3.82h-4.01l3.25 2.36-1.26 3.84 3.27-2.37 3.27 2.37-1.25-3.84 3.24-2.36h-4.01zM34.2 4.15l-1.25 3.83h-4.01l3.24 2.36-1.25 3.84 3.27-2.38 3.27 2.38-1.26-3.84 3.25-2.36h-4.01L34.2 4.15zM34.2 23.54l-1.25 3.82h-4.01l3.24 2.36-1.25 3.84 3.27-2.37 3.27 2.37-1.26-3.84 3.25-2.36h-4.01l-1.25-3.82zM34.2 42.92l-1.25 3.82h-4.01l3.24 2.37-1.25 3.84 3.27-2.38 3.27 2.38-1.26-3.84 3.25-2.37h-4.01l-1.25-3.82zM34.2 62.31l-1.25 3.82h-4.01l3.24 2.36-1.25 3.84 3.27-2.37 3.27 2.37-1.26-3.84 3.25-2.36h-4.01l-1.25-3.82zM35.45 85.51l-1.25-3.82-1.25 3.82h-4.01l3.24 2.36-1.25 3.85 3.27-2.38 3.27 2.38-1.26-3.85 3.25-2.36h-4.01zM45.61 13.85l-1.25 3.82h-4.01l3.24 2.36-1.25 3.84 3.27-2.38 3.27 2.38-1.26-3.84 3.25-2.36h-4.02l-1.24-3.82zM45.61 33.23l-1.25 3.82h-4.01l3.24 2.36-1.25 3.85 3.27-2.38 3.27 2.38-1.26-3.85 3.25-2.36h-4.02l-1.24-3.82zM45.61 52.61l-1.25 3.83h-4.01l3.24 2.36-1.25 3.84 3.27-2.38 3.27 2.38-1.26-3.84 3.25-2.36h-4.02l-1.24-3.83zM46.85 75.82 45.61 72l-1.25 3.82h-4.01l3.24 2.36-1.25 3.84 3.27-2.37 3.27 2.37-1.26-3.84 3.25-2.36h-4.02zM56.99 4.15l-1.25 3.83h-4.01l3.25 2.36-1.26 3.84 3.27-2.38 3.27 2.38-1.25-3.84 3.24-2.36h-4.01l-1.25-3.83zM56.99 23.54l-1.25 3.82h-4.01l3.25 2.36-1.26 3.84 3.27-2.37 3.27 2.37-1.25-3.84 3.24-2.36h-4.01l-1.25-3.82zM56.99 42.92l-1.25 3.82h-4.01l3.25 2.37-1.26 3.84 3.27-2.38 3.27 2.38-1.25-3.84 3.24-2.37h-4.01l-1.25-3.82zM56.99 62.31l-1.25 3.82h-4.01l3.25 2.36-1.26 3.84 3.27-2.37 3.27 2.37-1.25-3.84 3.24-2.36h-4.01l-1.25-3.82zM58.24 85.51l-1.25-3.82-1.25 3.82h-4.01l3.25 2.36-1.26 3.85 3.27-2.38 3.27 2.38-1.25-3.85 3.24-2.36h-4.01zM68.4 13.85l-1.25 3.82h-4.01l3.24 2.36-1.25 3.84 3.27-2.38 3.27 2.38-1.26-3.84 3.25-2.36h-4.01l-1.25-3.82zM68.4 33.23l-1.25 3.82h-4.01l3.24 2.36-1.25 3.85 3.27-2.38 3.27 2.38-1.26-3.85 3.25-2.36h-4.01l-1.25-3.82zM68.4 52.61l-1.25 3.83h-4.01l3.24 2.36-1.25 3.84 3.27-2.38 3.27 2.38-1.26-3.84 3.25-2.36h-4.01l-1.25-3.83zM69.65 75.82 68.4 72l-1.25 3.82h-4.01l3.24 2.36-1.25 3.84 3.27-2.37 3.27 2.37-1.26-3.84 3.25-2.36h-4.01zM79.81 4.15l-1.25 3.83h-4.01l3.24 2.36-1.25 3.84 3.27-2.38 3.27 2.38-1.26-3.84 3.25-2.36h-4.02l-1.24-3.83zM79.81 23.54l-1.25 3.82h-4.01l3.24 2.36-1.25 3.84 3.27-2.37 3.27 2.37-1.26-3.84 3.25-2.36h-4.02l-1.24-3.82zM79.81 42.92l-1.25 3.82h-4.01l3.24 2.37-1.25 3.84 3.27-2.38 3.27 2.38-1.26-3.84 3.25-2.37h-4.02l-1.24-3.82zM79.81 62.31l-1.25 3.82h-4.01l3.24 2.36-1.25 3.84 3.27-2.37 3.27 2.37-1.26-3.84 3.25-2.36h-4.02l-1.24-3.82zM81.05 85.51l-1.24-3.82-1.25 3.82h-4.01l3.24 2.36-1.25 3.85 3.27-2.38 3.27 2.38-1.26-3.85 3.25-2.36h-4.02zM91.19 13.85l-1.25 3.82h-4.01l3.24 2.36-1.25 3.84 3.27-2.38 3.27 2.38-1.25-3.84 3.24-2.36h-4.01l-1.25-3.82zM91.19 33.23l-1.25 3.82h-4.01l3.24 2.36-1.25 3.85 3.27-2.38 3.27 2.38-1.25-3.85 3.24-2.36h-4.01l-1.25-3.82zM91.19 52.61l-1.25 3.83h-4.01l3.24 2.36-1.25 3.84 3.27-2.38 3.27 2.38-1.25-3.84 3.24-2.36h-4.01l-1.25-3.83zM92.44 75.82 91.19 72l-1.25 3.82h-4.01l3.24 2.36-1.25 3.84 3.27-2.37 3.27 2.37-1.25-3.84 3.24-2.36h-4.01zM102.6 4.15l-1.25 3.83h-4.01l3.24 2.36-1.25 3.84 3.27-2.38 3.27 2.38-1.26-3.84 3.25-2.36h-4.02l-1.24-3.83zM102.6 23.54l-1.25 3.82h-4.01l3.24 2.36-1.25 3.84 3.27-2.37 3.27 2.37-1.26-3.84 3.25-2.36h-4.02l-1.24-3.82zM102.6 42.92l-1.25 3.82h-4.01l3.24 2.37-1.25 3.84 3.27-2.38 3.27 2.38-1.26-3.84 3.25-2.37h-4.02l-1.24-3.82zM102.6 62.31l-1.25 3.82h-4.01l3.24 2.36-1.25 3.84 3.27-2.37 3.27 2.37-1.26-3.84 3.25-2.36h-4.02l-1.24-3.82zM103.84 85.51l-1.24-3.82-1.25 3.82h-4.01l3.24 2.36-1.25 3.85 3.27-2.38 3.27 2.38-1.26-3.85 3.25-2.36h-4.02zM114.01 13.85l-1.25 3.82h-4.01l3.24 2.36-1.25 3.84 3.27-2.38 3.27 2.38-1.26-3.84 3.25-2.36h-4.02l-1.24-3.82zM114.01 33.23l-1.25 3.82h-4.01l3.24 2.36-1.25 3.85 3.27-2.38 3.27 2.38-1.26-3.85 3.25-2.36h-4.02l-1.24-3.82zM114.01 52.61l-1.25 3.83h-4.01l3.24 2.36-1.25 3.84 3.27-2.38 3.27 2.38-1.26-3.84 3.25-2.36h-4.02l-1.24-3.83zM115.25 75.82 114.01 72l-1.25 3.82h-4.01l3.24 2.36-1.25 3.84 3.27-2.37 3.27 2.37-1.26-3.84 3.25-2.36h-4.02zM123.37 10.34l-1.25 3.84 3.27-2.38 3.27 2.38-1.25-3.84 3.24-2.36h-4.01l-1.25-3.83-1.25 3.83h-4.01l3.24 2.36zM125.39 23.54l-1.25 3.82h-4.01l3.24 2.36-1.25 3.84 3.27-2.37 3.27 2.37-1.25-3.84 3.24-2.36h-4.01l-1.25-3.82zM125.39 42.92l-1.25 3.82h-4.01l3.24 2.37-1.25 3.84 3.27-2.38 3.27 2.38-1.25-3.84 3.24-2.37h-4.01l-1.25-3.82zM125.39 62.31l-1.25 3.82h-4.01l3.24 2.36-1.25 3.84 3.27-2.37 3.27 2.37-1.25-3.84 3.24-2.36h-4.01l-1.25-3.82zM126.64 85.51l-1.25-3.82-1.25 3.82h-4.01l3.24 2.36-1.25 3.85 3.27-2.38 3.27 2.38-1.25-3.85 3.24-2.36h-4.01z" class="s"/></g><g style="clip-path:url(#q)"><path d="M280.35-16.53-25.14 212.58" style="fill:none;stroke:#fff;stroke-miterlimit:10;stroke-width:22px"/></g></svg>