<svg width="96" height="96" viewBox="0 0 96 96" fill="none" xmlns="http://www.w3.org/2000/svg">
<rect width="96" height="96" fill="#f2f3f8"/>
<path d="M48.0007 39.9595C43.2643 39.9595 39.4247 44.3587 39.4247 49.7861C39.4247 55.2127 43.2643 59.6128 48.0007 59.6128C52.7354 59.6128 56.5767 55.2145 56.5767 49.7861C56.5767 44.3587 52.7372 39.9595 48.0007 39.9595ZM48.0007 56.8052C44.8482 56.8052 42.2834 53.6563 42.2834 49.7861C42.2834 45.916 44.8482 42.7671 48.0007 42.7671C51.1533 42.7671 53.7181 45.916 53.7181 49.7861C53.7181 53.6563 51.1533 56.8052 48.0007 56.8052ZM74.9043 32.1034C71.4391 30.6759 67.9712 30.1328 64.5051 30.1328C53.5019 30.1319 42.4996 35.6024 31.4964 35.6024C25.6978 35.6024 23.6038 34.2565 22.2951 34.2565C20.7576 34.2565 19.4141 35.4252 19.4141 37.0475V64.8832C19.4141 65.9914 20.0599 67.0416 21.0971 67.468C24.5623 68.8964 28.0303 69.4395 31.4964 69.4395C42.4996 69.4395 53.5019 63.969 64.5051 63.969C70.3037 63.969 72.3968 65.3158 73.7064 65.3158C75.2438 65.3158 76.5874 64.1471 76.5874 62.5248V34.6891C76.5874 33.58 75.9415 32.5307 74.9043 32.1034ZM22.3576 37.0869C24.1639 37.6502 26.0229 38.0108 27.9561 38.2179C27.7801 41.1492 25.3449 43.4857 22.3379 43.5199L22.3576 37.0869ZM22.2727 64.8832L22.2843 61.1509C25.2842 61.157 27.723 63.4592 27.9463 66.3651C25.9408 66.0984 24.0487 65.6237 22.2727 64.8832ZM73.6439 62.4854C71.8429 61.9238 69.9901 61.5632 68.0632 61.3562C68.3214 58.5047 70.7155 56.2551 73.6635 56.2217L73.6439 62.4854ZM73.6715 53.401C69.2049 53.4308 65.5788 56.8508 65.2224 61.1745C58.9039 61.0491 52.9677 62.5626 47.3021 63.9708C40.5959 65.6378 35.9979 66.7091 30.8282 66.5915C30.7183 62.0274 26.944 58.3432 22.2924 58.3327L22.329 46.3415C26.8537 46.3117 30.5227 42.8039 30.796 38.3995C37.0967 38.5232 43.0365 37.0106 48.6984 35.6033C55.3797 33.9415 59.9982 32.8641 65.1554 32.9808C65.1715 37.6248 68.9976 41.3984 73.7082 41.4098L73.6715 53.401ZM73.7171 38.5908C70.6583 38.5846 68.1749 36.192 68.0373 33.2054C70.05 33.4712 71.9483 33.9468 73.7287 34.6891L73.7171 38.5908Z" fill="#A5AAC0"/>
</svg>
