<svg width="176" height="43" viewBox="0 0 176 43" fill="none" xmlns="http://www.w3.org/2000/svg">
<path d="M57.4722 26.0354C57.1546 26.737 56.6802 27.2587 56.047 27.6044C55.4138 27.9502 54.675 28.12 53.8337 28.12C52.9412 28.12 52.1281 27.9813 51.3913 27.6999C50.6707 27.4346 50.0374 27.0325 49.4917 26.4928C48.962 25.9681 48.5529 25.3138 48.2614 24.5298C47.9719 23.7458 47.8242 22.8714 47.8252 21.9034C47.8252 20.9566 47.9629 20.0822 48.2272 19.2881C48.4956 18.4901 48.8725 17.8056 49.367 17.2317C49.8766 16.6427 50.4887 16.1944 51.2044 15.8868C51.9381 15.5682 52.7613 15.4094 53.6669 15.4094C54.1936 15.4094 54.664 15.4607 55.0801 15.5662C55.4922 15.6697 55.858 15.8225 56.1616 16.0215C56.4651 16.2246 56.7244 16.4467 56.9436 16.6899C57.1576 16.9372 57.3587 17.2277 57.5416 17.5604L57.5436 17.096C57.5667 16.5975 57.7275 16.2165 58.016 15.9542C58.3085 15.6949 58.6884 15.5602 59.1558 15.5602C59.6885 15.5622 60.0946 15.7411 60.372 16.0989C60.6534 16.4588 60.7911 16.9784 60.7901 17.6629L60.7851 27.2747C60.7841 29.299 60.2122 30.863 59.0684 31.9686C57.9296 33.0702 56.3194 33.624 54.2408 33.624C53.4016 33.623 52.5713 33.5406 51.7481 33.3758C50.939 33.2129 50.3108 33.0089 49.8686 32.7677C49.3861 32.5094 49.1429 32.1485 49.1429 31.6791C49.1419 31.3625 49.2525 31.0922 49.4756 30.868C49.7168 30.6067 50.0143 30.4931 50.3681 30.5263C50.3953 30.5303 50.4184 30.5313 50.4375 30.5313C50.4586 30.5313 50.4827 30.5323 50.5058 30.5363L50.5802 30.5504C50.6053 30.5524 50.6305 30.5635 50.6556 30.5705L50.731 30.5946C50.7712 30.6127 50.942 30.665 51.2406 30.7564C51.5421 30.8479 51.7532 30.9102 51.8738 30.9454C51.9954 30.9796 52.1834 31.0258 52.4447 31.0881C52.9201 31.2077 53.4026 31.265 53.892 31.259C54.1765 31.259 54.4398 31.2439 54.6881 31.2148C54.9313 31.1876 55.1685 31.1414 55.3937 31.0791C55.8118 30.9695 56.1867 30.7765 56.5174 30.4981C56.6772 30.3655 56.8139 30.2077 56.9315 30.0308C57.0461 29.8508 57.1446 29.6508 57.225 29.4307C57.3034 29.2096 57.3657 28.9633 57.4069 28.6869C57.4471 28.4125 57.4682 28.117 57.4702 27.7994L57.4722 26.0354ZM56.6631 24.8615C57.2059 24.2081 57.4733 23.203 57.4743 21.8371C57.4753 20.4953 57.2461 19.458 56.7908 18.7223C56.3314 17.9855 55.5646 17.6237 54.4911 17.6227C53.9413 17.6227 53.4619 17.7312 53.0578 17.9513C52.6537 18.1684 52.3391 18.477 52.114 18.876C51.8909 19.27 51.722 19.7113 51.6145 20.1927C51.5009 20.7234 51.4456 21.2612 51.4506 21.8039C51.4506 23.1297 51.727 24.1338 52.2809 24.8183C52.8337 25.5017 53.5704 25.8485 54.4861 25.8565C55.3947 25.8455 56.1174 25.5108 56.6631 24.8615ZM62.4898 23.2221C62.6154 22.81 62.8255 22.4572 63.1159 22.1597C63.4165 21.8572 63.7602 21.617 64.1482 21.4401C64.5422 21.2592 65.0568 21.1154 65.686 21.0049C66.3464 20.8933 67.0118 20.8209 67.6812 20.7888C68.5305 20.7455 69.3798 20.7275 70.2301 20.7325V19.8329C70.2311 18.3996 69.5215 17.682 68.1043 17.681C67.6118 17.685 67.1253 17.7433 66.6449 17.8559C66.1252 17.9714 65.7423 18.074 65.492 18.1604C65.1523 18.283 64.8156 18.4147 64.4819 18.5554C64.4387 18.5725 64.3944 18.5866 64.3492 18.5976C64.307 18.6097 64.2638 18.6177 64.2196 18.6228C64.1763 18.6278 64.1361 18.6278 64.0949 18.6278C63.7843 18.6278 63.522 18.4951 63.3059 18.2288C63.0908 17.9724 62.9833 17.6759 62.9833 17.3412C62.9833 17.1352 63.0335 16.9412 63.134 16.7723C63.2345 16.6025 63.3883 16.4648 63.5974 16.3653C64.9794 15.7079 66.5414 15.3803 68.2812 15.3803C69.0752 15.3803 69.7808 15.4707 70.402 15.6516C71.0101 15.8205 71.5599 16.1019 72.0524 16.4959C72.5308 16.8779 72.9007 17.3985 73.158 18.0539C73.4143 18.7072 73.545 19.4851 73.545 20.3857L73.5409 26.3993C73.5409 26.9451 73.3801 27.3742 73.0645 27.6778C72.757 27.9844 72.3871 28.1361 71.9529 28.1331C71.6745 28.1331 71.4141 28.0668 71.1639 27.9321C70.6141 27.6306 70.3397 27.1159 70.3397 26.3822V26.0314C70.0673 26.7571 69.5939 27.3109 68.9205 27.6929C68.2551 28.0768 67.4761 28.2688 66.5765 28.2688C65.3332 28.2668 64.311 27.9472 63.5079 27.3009C62.7038 26.6616 62.3018 25.7892 62.3018 24.6896C62.3048 24.1247 62.3661 23.6332 62.4898 23.2221ZM68.2591 25.9621C69.0551 25.6063 69.618 25.0243 69.9477 24.2162C70.1286 23.778 70.2181 23.3206 70.216 22.8462L70.2171 22.4341C69.6753 22.4341 69.224 22.4351 68.8602 22.4442C68.4983 22.4542 68.1325 22.4743 67.7636 22.5075C67.3917 22.5397 67.0901 22.5859 66.86 22.6432C66.6348 22.7025 66.4157 22.7799 66.2026 22.8764C66.0137 22.9558 65.8549 23.0744 65.7242 23.2322C65.6086 23.3739 65.5232 23.5438 65.4619 23.7357C65.3945 23.9589 65.3624 24.186 65.3654 24.4192C65.3654 24.9781 65.5242 25.4143 65.8448 25.7319C66.1665 26.0475 66.6017 26.2073 67.1525 26.2073C67.5384 26.2033 67.9073 26.1219 68.2581 25.9621H68.2591ZM76.2537 27.5974C75.9623 27.2486 75.8185 26.743 75.8195 26.0857L75.8246 17.5372C75.8246 16.8839 75.9753 16.3954 76.2769 16.0668C76.5744 15.7391 76.9995 15.5743 77.5493 15.5743C78.074 15.5743 78.5002 15.72 78.8228 16.0105C79.1475 16.302 79.3123 16.7171 79.3123 17.2508L79.3113 17.7493C80.0129 16.1733 81.3798 15.3873 83.4121 15.3893C85.5379 15.3893 86.8737 16.2999 87.4255 18.1182C88.2417 16.3009 89.7504 15.3943 91.9516 15.3963C93.2612 15.3963 94.3186 15.7964 95.1247 16.5975C95.9318 17.3965 96.3389 18.5695 96.3379 20.1093L96.3348 26.0978C96.3338 26.7581 96.1811 27.2617 95.8805 27.6104C95.579 27.9622 95.1468 28.1351 94.5819 28.1351C94.0392 28.1351 93.618 27.9592 93.3135 27.6084C93.0089 27.2597 92.8582 26.7561 92.8592 26.0968L92.8622 20.2088C92.8622 19.3907 92.6662 18.7645 92.2692 18.3262C91.8731 17.889 91.3364 17.6689 90.663 17.6689C89.8388 17.6689 89.1573 17.9644 88.6206 18.5614C88.0829 19.1555 87.8115 19.9786 87.8115 21.032L87.8095 26.0937C87.8075 26.7521 87.6557 27.2556 87.3522 27.6044C87.0486 27.9562 86.6114 28.1281 86.0425 28.1281C85.5028 28.1281 85.0826 27.9532 84.7821 27.6024C84.4826 27.2536 84.3318 26.7501 84.3338 26.0907L84.3378 20.3415C84.3378 19.465 84.1439 18.8007 83.7569 18.3463C83.3679 17.891 82.8312 17.6649 82.1397 17.6649C81.2893 17.6629 80.6059 17.9363 80.0892 18.483C79.5716 19.0258 79.3133 19.7746 79.3133 20.7244L79.3103 26.0887C79.3083 26.745 79.1525 27.2496 78.8409 27.5984C78.5253 27.9512 78.083 28.122 77.5041 28.122C76.9613 28.1231 76.5482 27.9502 76.2537 27.5974ZM99.8035 26.5651C98.5913 25.4213 97.9872 23.8212 97.9872 21.7637C97.9893 20.5948 98.2385 19.5344 98.7471 18.5775C99.2497 17.6166 99.9914 16.8487 100.966 16.2708C101.941 15.6919 103.06 15.4034 104.328 15.4034C105.322 15.4054 106.196 15.5672 106.953 15.8939C107.709 16.2155 108.316 16.6658 108.766 17.2327C109.221 17.8076 109.56 18.4459 109.781 19.1454C110.018 19.8982 110.137 20.6702 110.137 21.4592C110.137 21.7899 110.047 22.0552 109.866 22.2452C109.688 22.4382 109.427 22.5356 109.085 22.5356L101.462 22.5306C101.568 24.77 102.723 25.8917 104.922 25.8937C106.007 25.8937 107.089 25.4836 108.171 24.6574C108.315 24.5328 108.483 24.4705 108.673 24.4715C108.813 24.4715 108.952 24.5097 109.088 24.5821C109.226 24.6594 109.344 24.7529 109.443 24.8705C109.546 24.9871 109.626 25.1238 109.688 25.2776C109.764 25.4595 109.794 25.6485 109.777 25.8455L109.763 25.952C109.758 25.9882 109.751 26.0234 109.74 26.0586C109.727 26.0927 109.712 26.1249 109.694 26.1571C109.677 26.1912 109.663 26.2244 109.645 26.2586C109.624 26.2907 109.606 26.3239 109.582 26.3581C109.53 26.4264 109.472 26.4887 109.407 26.547C108.097 27.712 106.483 28.2949 104.569 28.2929C102.603 28.2829 101.015 27.7059 99.8035 26.5641V26.5651ZM107.201 20.7425C107.052 18.6097 106.12 17.5413 104.404 17.5413C103.519 17.5413 102.828 17.8478 102.327 18.466C101.826 19.0811 101.546 19.8409 101.49 20.7395L107.201 20.7425ZM113.181 27.6125C112.869 27.2617 112.713 26.7561 112.714 26.0947L112.719 17.7724L111.645 17.7704C110.81 17.7543 110.394 17.3955 110.394 16.695C110.394 16.4939 110.431 16.32 110.502 16.1622C110.584 15.9954 110.707 15.8667 110.869 15.7763C111.046 15.6707 111.271 15.6185 111.544 15.6185H111.571L112.72 15.6205V14.5601C112.722 12.9268 113.097 11.7388 113.849 10.997C114.598 10.2572 115.719 9.88835 117.213 9.88835L118.687 9.88935C119.019 9.89036 119.287 10.024 119.488 10.2944C119.688 10.5678 119.786 10.8774 119.786 11.2292C119.786 11.5779 119.691 11.8724 119.499 12.1137C119.305 12.3549 119.034 12.4755 118.684 12.4755H117.772C117.157 12.4755 116.743 12.6303 116.529 12.9429C116.317 13.2545 116.207 13.9279 116.207 14.9621V15.6255H117.77C118.137 15.6255 118.423 15.721 118.627 15.9069C118.831 16.0939 118.932 16.3592 118.932 16.701C118.932 17.4176 118.52 17.7775 117.692 17.7775L116.207 17.7754L116.202 26.0988C116.202 26.7591 116.05 27.2647 115.746 27.6165C115.442 27.9733 115.013 28.1502 114.463 28.1502C113.92 28.1492 113.494 27.9693 113.181 27.6125ZM122.81 27.7843C121.939 27.4396 121.237 26.9662 120.707 26.3671C120.168 25.7691 119.764 25.0906 119.494 24.3318C119.213 23.5367 119.076 22.7186 119.085 21.8753C119.085 21.0089 119.221 20.1907 119.493 19.4258C119.76 18.662 120.162 17.9765 120.699 17.3704C121.233 16.7643 121.935 16.2879 122.805 15.9311C123.679 15.5793 124.668 15.4034 125.777 15.4034C126.861 15.4064 127.829 15.5743 128.687 15.913C129.545 16.2477 130.246 16.713 130.786 17.3061C131.327 17.8991 131.743 18.5825 132.03 19.3575C132.316 20.1314 132.463 20.9737 132.461 21.8833C132.465 22.7125 132.326 23.5166 132.045 24.2966C131.772 25.0534 131.369 25.7339 130.835 26.337C130.307 26.9421 129.609 27.4185 128.738 27.7763C127.864 28.1281 126.876 28.306 125.767 28.306C124.666 28.304 123.68 28.1281 122.81 27.7833V27.7843ZM128.105 24.9238C128.655 24.1951 128.932 23.1819 128.934 21.8833C128.934 20.5485 128.662 19.5183 128.116 18.7896C127.573 18.0579 126.79 17.694 125.775 17.693C124.756 17.693 123.975 18.0569 123.431 18.7886C122.885 19.5153 122.61 20.5475 122.609 21.8793C122.608 23.1709 122.885 24.183 123.432 24.9168C123.981 25.6525 124.76 26.0184 125.77 26.0184C126.779 26.0184 127.556 25.6555 128.105 24.9238ZM135.317 27.0607C134.463 26.2264 134.037 25.0434 134.039 23.5096L134.042 17.6478C134.042 16.9894 134.194 16.4839 134.506 16.1341C134.811 15.7863 135.255 15.6114 135.831 15.6114C136.371 15.6114 136.787 15.7863 137.079 16.1341C137.369 16.4859 137.516 16.9915 137.515 17.6498L137.511 23.4865C137.511 24.3107 137.718 24.9419 138.134 25.3761C138.55 25.8083 139.085 26.0254 139.736 26.0254C140.529 26.0254 141.203 25.7178 141.767 25.1047C142.33 24.4846 142.611 23.6925 142.611 22.7156L142.615 17.6538C142.615 16.9955 142.77 16.4909 143.076 16.1411C143.386 15.7893 143.825 15.6145 144.39 15.6165C144.941 15.6165 145.359 15.7924 145.653 16.1442C145.945 16.4929 146.089 16.9985 146.088 17.6558L146.083 26.3933C146.083 26.9762 145.929 27.4185 145.621 27.718C145.311 28.0185 144.879 28.1673 144.321 28.1673C143.778 28.1673 143.358 28.0185 143.057 27.716C142.76 27.4175 142.608 26.9782 142.608 26.4053V26.0415C141.874 27.5572 140.502 28.316 138.494 28.314C137.229 28.314 136.171 27.8959 135.317 27.0607ZM148.788 27.6466C148.496 27.2948 148.349 26.7903 148.351 26.1319L148.357 17.3955C148.357 16.8105 148.511 16.3703 148.821 16.0708C149.128 15.7692 149.56 15.6185 150.12 15.6185C150.661 15.6185 151.081 15.7703 151.376 16.0708C151.671 16.3703 151.819 16.8075 151.819 17.3824V17.686C152.571 16.1763 153.984 15.4245 156.06 15.4245C157.319 15.4265 158.354 15.8396 159.175 16.6708C159.995 17.499 160.407 18.6851 160.406 20.2269L160.403 26.14C160.401 26.7983 160.246 27.3039 159.937 27.6517C159.629 27.9994 159.186 28.1763 158.611 28.1763C158.071 28.1763 157.654 27.9994 157.362 27.6496C157.069 27.2999 156.925 26.7953 156.927 26.138L156.929 20.25C156.929 19.4339 156.719 18.8067 156.3 18.3664C155.88 17.9312 155.343 17.7111 154.693 17.7101C153.907 17.7101 153.236 18.0197 152.674 18.6348C152.111 19.2509 151.83 20.047 151.828 21.0209L151.826 26.1339C151.826 26.7923 151.671 27.2958 151.364 27.6466C151.052 27.9944 150.612 28.1723 150.038 28.1723C149.496 28.1723 149.077 27.9954 148.788 27.6456V27.6466ZM163.454 26.5852C162.465 25.3892 161.971 23.8121 161.971 21.8522C161.973 19.8631 162.49 18.3021 163.523 17.1784C164.557 16.0547 165.906 15.4918 167.559 15.4938C169.454 15.4949 170.774 16.1773 171.524 17.5463L171.527 12.1207C171.529 11.4644 171.68 10.9568 171.987 10.607C172.299 10.2582 172.742 10.0843 173.314 10.0843C173.856 10.0843 174.273 10.2582 174.565 10.609C174.855 10.9588 175.003 11.4664 175.002 12.1227L174.992 26.0606C174.992 26.7209 174.834 27.2386 174.516 27.6255C174.198 28.0055 173.769 28.1984 173.228 28.1984C172.692 28.1984 172.278 28.0477 171.977 27.7461C171.679 27.4456 171.528 27.0305 171.528 26.4948L171.53 26.1591C170.752 27.6416 169.373 28.3844 167.387 28.3824C165.759 28.3824 164.445 27.7823 163.454 26.5852ZM170.767 25.0746C171.26 24.3579 171.507 23.3036 171.508 21.9195C171.509 20.6521 171.245 19.645 170.716 18.8951C170.187 18.1433 169.409 17.7694 168.384 17.7674C167.685 17.7674 167.102 17.9674 166.635 18.3675C166.159 18.7735 165.829 19.2761 165.647 19.8751C165.454 20.4772 165.359 21.1607 165.359 21.9286C165.359 22.3216 165.387 22.7065 165.443 23.0864C165.504 23.4644 165.604 23.8403 165.75 24.2172C165.896 24.5921 166.077 24.9228 166.299 25.2042C166.52 25.4856 166.806 25.7168 167.156 25.8927C167.531 26.0746 167.926 26.1621 168.342 26.155C169.468 26.1571 170.277 25.7972 170.767 25.0746Z" fill="white"/>
<path d="M41.9989 21.6506C41.9164 33.1815 32.5473 42.5 21 42.5C9.40103 42.5 0 33.1 0 21.499C0 9.90311 9.40105 0.5 20.999 0.5H34.607C35.7828 0.5 36.7368 1.45509 36.7368 2.6288C36.7368 2.74019 36.6059 3.34147 36.2975 3.86232C34.9856 6.09011 31.483 10.8788 31.483 10.8788C31.0652 11.3089 30.5578 11.5224 29.9586 11.5203H20.9979C15.4851 11.5203 11.0172 15.9872 11.0172 21.499C11.0172 27.0117 15.4851 31.4807 20.9979 31.4807C21.7982 31.4818 22.5873 31.3869 23.365 31.1971C24.1416 31.0083 24.8862 30.7289 25.5958 30.3607C26.3064 29.9914 26.9635 29.5438 27.5658 29.0167C28.1681 28.4907 28.6993 27.8998 29.1593 27.2448L29.4378 26.8354C29.6059 26.5641 29.7069 26.2691 29.743 25.9515C29.7781 25.6348 29.7441 25.3255 29.6399 25.0233C29.5357 24.7211 29.3717 24.456 29.1489 24.227C28.9262 23.9991 28.6642 23.8289 28.3651 23.7185L27.7122 23.3885C27.4028 23.1925 27.1604 22.9347 26.9841 22.615C26.8077 22.2942 26.72 21.9518 26.72 21.5856C26.72 20.4078 27.673 19.4578 28.8488 19.4578L30.7651 19.4434H38.1312L39.8743 19.4568C41.0501 19.4568 42.0021 20.4078 42.0021 21.5846L41.9989 21.6506Z" fill="url(#paint0_linear_6416_14109)"/>
<path d="M39.8764 19.4558L38.1333 19.4424H36.6141C36.2201 30.6432 28.9489 37.5875 18.2638 37.1254C8.82144 36.717 1.03138 29.9852 0.0134085 20.8038C0.00618881 21.0369 0 21.2679 0 21.4989C0 33.0999 9.40105 42.5 20.999 42.5C32.5474 42.5 41.9175 33.1804 41.9979 21.6505L42.0031 21.5845C42.0041 21.3019 41.9505 21.0307 41.8422 20.7697C41.7349 20.5088 41.5813 20.2778 41.3822 20.0787C41.1821 19.8786 40.9521 19.725 40.6912 19.6167C40.4303 19.5094 40.159 19.4558 39.8764 19.4558Z" fill="url(#paint1_linear_6416_14109)"/>
<path d="M20.862 31.6597C15.3492 31.6597 10.8813 27.1906 10.8813 21.6779C10.8813 16.1662 15.3492 11.6993 20.862 11.6993H29.8226C30.4219 11.7013 30.9293 11.4878 31.347 11.0577C31.347 11.0577 34.8496 6.268 36.1615 4.04124C36.4699 3.52039 36.6009 2.91911 36.6009 2.80772C36.6009 2.52512 36.5462 2.25383 36.4389 1.99289C36.3306 1.73195 36.1759 1.50197 35.9769 1.30188C35.7768 1.10282 35.5468 0.949121 35.2859 0.840826C35.0249 0.732531 34.7537 0.678917 34.4711 0.678917H20.862C16.1021 0.678917 11.7136 2.26418 8.19139 4.93237C7.33534 5.65949 6.56695 6.4712 5.88727 7.36541C5.20758 8.25962 4.6321 9.21778 4.16179 10.2368C3.69045 11.2568 3.33461 12.316 3.09326 13.4134C2.85295 14.5108 2.73335 15.6216 2.73438 16.7448C2.73438 25.3125 9.6797 32.2578 18.2464 32.2578C19.7058 32.2578 20.8733 32.0289 21.8047 31.6101C21.4911 31.6411 21.1765 31.6576 20.862 31.6597Z" fill="url(#paint2_linear_6416_14109)"/>
<path d="M25.0149 5.78393C17.2403 5.78393 10.9365 12.0867 10.9365 19.8623C10.9365 21.0773 11.0943 22.2489 11.3821 23.3711C11.2666 22.7585 11.2077 22.1396 11.2067 21.5156C11.2067 16.0039 15.6757 11.537 21.1885 11.537H30.1491C30.7484 11.5391 31.2558 11.3256 31.6735 10.8955C31.6735 10.8955 33.7177 8.09632 35.2689 5.78293H25.0149V5.78393Z" fill="url(#paint3_linear_6416_14109)"/>
<path d="M30.2892 19.4683L28.771 19.4786C28.2965 19.4776 27.8695 19.6199 27.49 19.9046C27.1104 20.1892 26.8547 20.5595 26.7227 21.0154C26.5917 21.4712 26.6103 21.921 26.7794 22.3644C26.9485 22.8079 27.2332 23.1555 27.6355 23.4082L28.2852 23.7403C28.7019 23.896 29.0371 24.1569 29.2898 24.5231C29.5425 24.8903 29.6683 25.2956 29.6652 25.7412C29.6652 26.1249 29.5724 26.4807 29.3939 26.7891C30.3841 25.2028 30.8864 23.4742 30.8988 21.6043L30.9018 21.6063C30.9018 20.4306 31.8548 19.4776 33.0296 19.4776L30.2892 19.4683Z" fill="url(#paint4_linear_6416_14109)"/>
<defs>
<linearGradient id="paint0_linear_6416_14109" x1="0" y1="21.5" x2="42.0021" y2="21.5" gradientUnits="userSpaceOnUse">
<stop stop-color="#0EB568"/>
<stop offset="0.01" stop-color="#10B669"/>
<stop offset="0.15" stop-color="#36CC83"/>
<stop offset="0.3" stop-color="#57DF99"/>
<stop offset="0.46" stop-color="#6FEDAA"/>
<stop offset="0.62" stop-color="#81F7B6"/>
<stop offset="0.8" stop-color="#8CFDBD"/>
<stop offset="1" stop-color="#8FFFBF"/>
</linearGradient>
<linearGradient id="paint1_linear_6416_14109" x1="0" y1="30.9712" x2="42.0031" y2="30.9712" gradientUnits="userSpaceOnUse">
<stop stop-color="#8FFFBF"/>
<stop offset="0.14" stop-color="#86FAB9"/>
<stop offset="0.36" stop-color="#6FEDA9"/>
<stop offset="0.64" stop-color="#49D78F"/>
<stop offset="0.97" stop-color="#14B86C"/>
<stop offset="1" stop-color="#0EB568"/>
</linearGradient>
<linearGradient id="paint2_linear_6416_14109" x1="2.73438" y1="16.4684" x2="36.6009" y2="16.4684" gradientUnits="userSpaceOnUse">
<stop stop-color="#8FFFBF"/>
<stop offset="0.19" stop-color="#6EF6AE"/>
<stop offset="0.41" stop-color="#4FED9F"/>
<stop offset="0.62" stop-color="#39E794"/>
<stop offset="0.82" stop-color="#2CE38D"/>
<stop offset="1" stop-color="#27e28b"/>
</linearGradient>
<linearGradient id="paint3_linear_6416_14109" x1="10.9365" y1="14.5775" x2="35.2689" y2="14.5775" gradientUnits="userSpaceOnUse">
<stop stop-color="#0EB568"/>
<stop offset="0.08" stop-color="#20BF74"/>
<stop offset="0.28" stop-color="#48D68F"/>
<stop offset="0.47" stop-color="#67E8A4"/>
<stop offset="0.66" stop-color="#7DF5B3"/>
<stop offset="0.84" stop-color="#8AFCBC"/>
<stop offset="1" stop-color="#8FFFBF"/>
</linearGradient>
<linearGradient id="paint4_linear_6416_14109" x1="26.6391" y1="23.1287" x2="33.0293" y2="23.1287" gradientUnits="userSpaceOnUse">
<stop stop-color="#8FFFBF"/>
<stop offset="0.08" stop-color="#7CF4B2"/>
<stop offset="0.28" stop-color="#55DE98"/>
<stop offset="0.47" stop-color="#36CC83"/>
<stop offset="0.66" stop-color="#20BF74"/>
<stop offset="0.84" stop-color="#13B86B"/>
<stop offset="1" stop-color="#0EB568"/>
</linearGradient>
</defs>
</svg>
