<svg width="42" height="42" xmlns="http://www.w3.org/2000/svg">
  <g id="svg_22">
    <g transform="matrix(1.0483969704535676,0,0,1.0483969704535676,-139.5563811048615,-139.55555576562426) " id="svg_15">
      <linearGradient transform="translate(0,-35.88768768310547) translate(-35.88788986206055,0) translate(168.99998474121094,0) translate(0,168.99998474121094) " y2="0.500013" x2="0.999987" y1="0.500013" x1="-0.000015" id="svg_13">
        <stop stop-color="#0EB568" offset="0.000817"/>
        <stop stop-color="#10B669" offset="0.0066"/>
        <stop stop-color="#36CC83" offset="0.1528"/>
        <stop stop-color="#57DF99" offset="0.3044"/>
        <stop stop-color="#6FEDAA" offset="0.4607"/>
        <stop stop-color="#81F7B6" offset="0.6236"/>
        <stop stop-color="#8CFDBD" offset="0.7971"/>
        <stop stop-color="#8FFFBF" offset="1"/>
      </linearGradient>
      <path id="svg_16" d="m173.108095,153.255297c-0.078,10.98 -9,19.855 -19.996,19.855c-11.044,0 -19.996,-8.951 -19.996,-19.998c0,-11.044 8.952,-19.999 19.996,-19.999l12.958,0c1.119,0 2.027,0.91 2.027,2.027c0,0.106 -0.125,0.679 -0.419,1.174c-1.249,2.121 -4.585,6.684 -4.585,6.684c-0.367,0.378 -0.88,0.609 -1.451,0.609l-8.532,0c-5.249,0 -9.503,4.254 -9.503,9.504c0,5.25 4.255,9.504 9.503,9.504c3.213,0 6.051,-1.592 7.771,-4.033l0.267,-0.391c0.191,-0.311 0.302,-0.674 0.302,-1.064c0,-0.873 -0.552,-1.617 -1.324,-1.904l-0.621,-0.314c-0.57,-0.363 -0.945,-0.996 -0.945,-1.715c0,-1.121 0.908,-2.027 2.027,-2.027l1.824,-0.014l7.015,0l1.659,0.014c1.12,0 2.025,0.906 2.025,2.025l-0.002,0.063z" fill="url(#svg_13)"/>
      <g id="svg_17">
        <linearGradient transform="translate(0,-35.88768768310547) translate(-35.88788986206055,0) translate(168.99998474121094,0) translate(0,168.99998474121094) " y2="0.500005" x2="0.999987" y1="0.500005" x1="-0.000015" id="svg_12">
          <stop stop-color="#8FFFBF" offset="0"/>
          <stop stop-color="#86FAB9" offset="0.1395"/>
          <stop stop-color="#6FEDA9" offset="0.3635"/>
          <stop stop-color="#49D78F" offset="0.6439"/>
          <stop stop-color="#14B86C" offset="0.9672"/>
          <stop stop-color="#0EB568" offset="1"/>
        </linearGradient>
        <path id="svg_18" d="m171.085095,151.166297l-1.659,-0.014l-1.447,0c-0.374,10.667 -7.299,17.282 -17.473,16.84c-8.992,-0.39 -16.41,-6.798 -17.379,-15.543c-0.007,0.224 -0.013,0.443 -0.013,0.663c0,11.047 8.952,19.999 19.996,19.999c10.996,0 19.918,-8.875 19.996,-19.855l0.004,-0.062c0.002,-1.124 -0.905,-2.028 -2.025,-2.028z" fill="url(#svg_12)"/>
      </g>
      <linearGradient transform="translate(0,-35.88768768310547) translate(-35.88788986206055,0) translate(168.99998474121094,0) translate(0,168.99998474121094) " y2="0.500003" x2="0.999994" y1="0.500003" x1="-0.000009" id="svg_11">
        <stop stop-color="#8FFFBF" offset="0"/>
        <stop stop-color="#6EF6AE" offset="0.1892"/>
        <stop stop-color="#4FED9F" offset="0.4051"/>
        <stop stop-color="#39E794" offset="0.616"/>
        <stop stop-color="#2CE38D" offset="0.8177"/>
        <stop stop-color="#27e28b" offset="1"/>
      </linearGradient>
      <path id="svg_19" d="m153.112095,162.616297c-5.25,0 -9.504,-4.254 -9.504,-9.504c0,-5.25 4.255,-9.504 9.504,-9.504l8.532,0c0.569,0 1.082,-0.231 1.451,-0.609c0,0 3.335,-4.562 4.584,-6.684c0.294,-0.495 0.419,-1.067 0.419,-1.174c0,-1.118 -0.909,-2.027 -2.028,-2.027l-12.958,0c-4.533,0 -8.711,1.51 -12.065,4.051c-3.181,2.71 -5.196,6.741 -5.196,11.247c0,8.161 6.613,14.774 14.771,14.774c1.389,0 2.5,-0.219 3.388,-0.617c-0.294,0.027 -0.593,0.047 -0.898,0.047z" fill="url(#svg_11)"/>
      <linearGradient transform="translate(0,-35.88768768310547) translate(-35.88788986206055,0) translate(168.99998474121094,0) translate(0,168.99998474121094) " y2="0.500042" x2="1.00003" y1="0.500042" x1="-0.000009" id="svg_10">
        <stop stop-color="#0EB568" offset="0"/>
        <stop stop-color="#20BF74" offset="0.0792"/>
        <stop stop-color="#48D68F" offset="0.2762"/>
        <stop stop-color="#67E8A4" offset="0.4705"/>
        <stop stop-color="#7DF5B3" offset="0.6588"/>
        <stop stop-color="#8AFCBC" offset="0.8384"/>
        <stop stop-color="#8FFFBF" offset="1"/>
      </linearGradient>
      <path id="svg_20" d="m156.756095,138.128297c-7.404,0 -13.406,6.003 -13.406,13.407c0,1.155 0.15,2.274 0.424,3.34c-0.106,-0.572 -0.166,-1.16 -0.166,-1.766c0,-5.25 4.255,-9.503 9.504,-9.503l8.532,0c0.569,0 1.082,-0.231 1.451,-0.609c0,0 1.947,-2.666 3.424,-4.87l-9.763,0.001l0,0z" fill="url(#svg_10)"/>
      <linearGradient transform="translate(0,-35.88768768310547) translate(-35.88788986206055,0) translate(168.99998474121094,0) translate(0,168.99998474121094) " y2="0.500086" x2="1.000066" y1="0.500086" x1="-0.000247" id="svg_9">
        <stop stop-color="#8FFFBF" offset="0"/>
        <stop stop-color="#7CF4B2" offset="0.0813"/>
        <stop stop-color="#55DE98" offset="0.2773"/>
        <stop stop-color="#36CC83" offset="0.4707"/>
        <stop stop-color="#20BF74" offset="0.6584"/>
        <stop stop-color="#13B86B" offset="0.8378"/>
        <stop stop-color="#0EB568" offset="1"/>
      </linearGradient>
      <path id="svg_21" d="m162.045095,151.145297l-1.446,0.008c-1.119,0 -2.027,0.908 -2.027,2.027c0,0.721 0.378,1.354 0.947,1.715l0.619,0.316c0.773,0.285 1.312,1.035 1.312,1.906c0,0.365 -0.087,0.705 -0.258,1c0.896,-1.436 1.417,-3.127 1.433,-4.94l0.003,0.002c0,-1.119 0.908,-2.027 2.026,-2.027l-2.609,-0.007z" fill="url(#svg_9)"/>
    </g>
  </g>
</svg>